<svg width="450" height="320" viewBox="0 0 450 320" fill="none" xmlns="http://www.w3.org/2000/svg">
<path d="M477 -20H-27V339.127H477V-20Z" fill="url(#paint0_radial_766_513)"/>
<path d="M477 -20V339.127H189.1C196.1 304.461 254.5 16.0374 261 -20H477Z" fill="url(#paint1_radial_766_513)"/>
<g opacity="0.2">
<mask id="mask0_766_513" style="mask-type:luminance" maskUnits="userSpaceOnUse" x="-27" y="-20" width="504" height="360">
<path d="M477 -20H-27V339.127H477V-20Z" fill="white"/>
</mask>
<g mask="url(#mask0_766_513)">
<path d="M-39.7002 8.43066V12.9198L47.5998 62.5491L-39.7002 8.43066Z" fill="black"/>
<path d="M-9.10019 351.721L54.7998 296.855L-14.2002 351.721H-9.10019Z" fill="black"/>
<path d="M-39.7002 -31.5969V-22.6187L110.4 84.2465L-39.7002 -31.5969Z" fill="black"/>
<path d="M-39.7002 144.974V146.72L2.5998 148.715L-39.7002 144.974Z" fill="black"/>
<path d="M485.1 31.9985L392.5 78.6352L485.1 36.3629V31.9985Z" fill="black"/>
<path d="M-39.7002 228.77V233.384L71.8998 201.462L-39.7002 228.77Z" fill="black"/>
<path d="M-3.9002 351.722L86.6998 272.414L-11.2002 351.722H-3.9002Z" fill="black"/>
<path d="M19.0996 -35.7119L137.6 81.6279L27.6996 -35.7119H19.0996Z" fill="black"/>
<path d="M403.6 -35.712L300.2 76.0164L411.8 -35.712H403.6Z" fill="black"/>
<path d="M485.1 280.145L437.3 260.194L485.1 282.265V280.145Z" fill="black"/>
<path d="M485.099 97.9631L378.399 125.147L485.099 102.328V97.9631Z" fill="black"/>
<path d="M241.9 -35.7119L228.1 79.7574L246.2 -35.7119H241.9Z" fill="black"/>
<path d="M-39.7002 129.013V133.627L75.5998 145.598L-39.7002 129.013Z" fill="black"/>
<path d="M146.5 -35.7119L187.1 76.5153L151.1 -35.7119H146.5Z" fill="black"/>
<path d="M266.7 -35.7119L247.5 44.3435L269.9 -35.7119H266.7Z" fill="black"/>
<path d="M152.6 351.722L167.1 306.955L150.8 351.722H152.6Z" fill="black"/>
<path d="M-39.7002 318.427V325.036L83.5998 245.355L-39.7002 318.427Z" fill="black"/>
<path d="M-19.1998 351.721L42.9002 300.596L-24.2998 351.721H-19.1998Z" fill="black"/>
<path d="M-39.7002 278.649V283.263L59.1998 235.379L-39.7002 278.649Z" fill="black"/>
<path d="M485.1 100.208L429.7 114.049L485.1 102.452V100.208Z" fill="black"/>
<path d="M273.399 -35.712L242.899 74.6447L277.899 -35.712H273.399Z" fill="black"/>
<path d="M422.3 -35.7119L303 81.3785L431.7 -35.7119H422.3Z" fill="black"/>
<path d="M485.1 68.2852L403 98.5865L485.1 71.9014V68.2852Z" fill="black"/>
<path d="M485.1 159.314L403 161.559L485.1 162.556V159.314Z" fill="black"/>
<path d="M154.5 351.721L183.7 260.194L150.7 351.721H154.5Z" fill="black"/>
<path d="M485.1 332.144L444.6 307.454L485.1 334.264V332.144Z" fill="black"/>
<path d="M149.2 -35.712L191.8 86.7403L154.3 -35.712H149.2Z" fill="black"/>
<path d="M459.799 -35.712L384.899 27.1352L465.899 -35.712H459.799Z" fill="black"/>
<path d="M485.1 135.497L321.5 153.578L485.1 141.857V135.497Z" fill="black"/>
<path d="M203.8 351.722L207.5 284.759L201.3 351.722H203.8Z" fill="black"/>
<path d="M274.399 -35.712L248.399 57.1872L278.199 -35.712H274.399Z" fill="black"/>
<path d="M-5.2998 -35.712L144.5 96.7161L5.7002 -35.712H-5.2998Z" fill="black"/>
<path d="M313.199 351.722L263.899 257.451L308.699 351.722H313.199Z" fill="black"/>
<path d="M485.1 34.6171L311.5 119.162L485.1 42.7224V34.6171Z" fill="black"/>
<path d="M-39.7002 64.5443V69.2828L66.8998 106.941L-39.7002 64.5443Z" fill="black"/>
<path d="M77.2996 351.721L158.6 239.743L70.5996 351.721H77.2996Z" fill="black"/>
<path d="M121.899 -35.712L167.399 57.3119L126.099 -35.712H121.899Z" fill="black"/>
<path d="M-39.7002 313.44V316.682L22.9998 277.901L-39.7002 313.44Z" fill="black"/>
<path d="M485.1 1.19849L372.1 71.0288L485.1 7.05924V1.19849Z" fill="black"/>
<path d="M-39.7002 315.559V319.924L44.7998 266.678L-39.7002 315.559Z" fill="black"/>
<path d="M-39.7002 210.066V213.806L52.9998 194.229L-39.7002 210.066Z" fill="black"/>
<path d="M375.4 -35.7119L326 27.7588L379.4 -35.7119H375.4Z" fill="black"/>
<path d="M143.2 -35.712L173.6 43.8446L146.5 -35.712H143.2Z" fill="black"/>
<path d="M1.99942 351.721L71.8994 288.75L-3.60059 351.721H1.99942Z" fill="black"/>
<path d="M418.599 351.722L331.899 272.414L412.299 351.722H418.599Z" fill="black"/>
<path d="M485.1 74.3955L372.5 112.927L485.1 79.134V74.3955Z" fill="black"/>
<path d="M53.2 351.721L150.3 237.873L45.5 351.721H53.2Z" fill="black"/>
<path d="M485.1 64.5443L331 122.528L485.1 71.2779V64.5443Z" fill="black"/>
<path d="M364 -35.7119L291.5 64.1703L370 -35.7119H364Z" fill="black"/>
<path d="M-39.7002 -35.7119V-32.9686L113.1 82.002L-31.5002 -35.7119H-39.7002Z" fill="black"/>
<path d="M-39.7002 258.573V262.439L47.1998 227.523L-39.7002 258.573Z" fill="black"/>
<path d="M123.6 -35.7119L171.5 64.295L128.1 -35.7119H123.6Z" fill="black"/>
<path d="M-39.7002 284.51V288.999L54.6998 241.24L-39.7002 284.51Z" fill="black"/>
<path d="M-39.7002 140.36V147.343L137.1 157.07L-39.7002 140.36Z" fill="black"/>
<path d="M485.099 108.438L370.899 133.003L485.099 113.052V108.438Z" fill="black"/>
<path d="M485.099 107.315L404.899 125.147L485.099 110.558V107.315Z" fill="black"/>
<path d="M205.9 351.721L208.6 291.617L203.7 351.721H205.9Z" fill="black"/>
<path d="M221.899 -35.712L219.899 75.6423L225.999 -35.712H221.899Z" fill="black"/>
<path d="M37.8998 351.721L89.5998 295.608L33.7998 351.721H37.8998Z" fill="black"/>
<path d="M148.9 351.721L184.9 248.971L144.6 351.721H148.9Z" fill="black"/>
<path d="M-39.7002 92.2273V95.9682L50.2998 118.289L-39.7002 92.2273Z" fill="black"/>
<path d="M-39.7002 36.7371V40.2286L32.7998 73.7721L-39.7002 36.7371Z" fill="black"/>
<path d="M222.5 -35.712L220.7 58.9329L226 -35.712H222.5Z" fill="black"/>
<path d="M144.6 351.721L164.9 296.356L142.2 351.721H144.6Z" fill="black"/>
<path d="M485.1 267.925L342.2 213.557L485.1 274.409V267.925Z" fill="black"/>
<path d="M485.099 -3.41553L377.399 65.0431L485.099 2.19583V-3.41553Z" fill="black"/>
<path d="M485.1 296.73L410.3 260.817L485.1 300.346V296.73Z" fill="black"/>
<path d="M-39.7002 236.501V243.11L117.5 192.733L-39.7002 236.501Z" fill="black"/>
<path d="M485.1 192.858L335.7 177.52L485.1 198.718V192.858Z" fill="black"/>
<path d="M34.3002 351.721L130.3 250.592L26.7002 351.721H34.3002Z" fill="black"/>
<path d="M264.7 351.722L247.8 288.625L262.2 351.722H264.7Z" fill="black"/>
<path d="M485.1 71.0288L330.6 125.397L485.1 77.6378V71.0288Z" fill="black"/>
<path d="M-39.7002 171.16V174.527L43.9998 169.664L-39.7002 171.16Z" fill="black"/>
<path d="M485.1 93.5986L331.8 134.624L485.1 99.9582V93.5986Z" fill="black"/>
<path d="M-39.7002 217.423V222.91L93.9998 190.364L-39.7002 217.423Z" fill="black"/>
<path d="M485.1 197.596L305.3 175.649L485.1 204.704V197.596Z" fill="black"/>
<path d="M17.4 351.721L53.4 316.557L14.5 351.721H17.4Z" fill="black"/>
<path d="M70 -35.7119L147.1 66.789L75.9 -35.7119H70Z" fill="black"/>
<path d="M-39.7002 220.416V225.403L80.7998 194.728L-39.7002 220.416Z" fill="black"/>
<path d="M193.3 351.721L197.9 309.324L191.7 351.721H193.3Z" fill="black"/>
<path d="M-39.7002 204.33V207.198L31.2998 193.98L-39.7002 204.33Z" fill="black"/>
<path d="M485.1 -5.65991L388.8 56.5639L485.1 -0.547338V-5.65991Z" fill="black"/>
<path d="M381.5 351.721L289.8 248.472L374.8 351.721H381.5Z" fill="black"/>
<path d="M312.299 -35.712L289.399 13.5433L314.599 -35.712H312.299Z" fill="black"/>
<path d="M91.7002 -35.712L127.6 19.7781L94.6002 -35.712H91.7002Z" fill="black"/>
<path d="M59 -35.7119L90.7 2.94413L61.4 -35.7119H59Z" fill="black"/>
<path d="M-39.7002 -31.2228V-25.8608L50.5998 38.8569L-39.7002 -31.2228Z" fill="black"/>
<path d="M485.1 305.833L377.5 250.218L485.1 311.195V305.833Z" fill="black"/>
<path d="M365.2 351.722L332.6 311.569L362.8 351.722H365.2Z" fill="black"/>
<path d="M485.1 85.1191L404.7 109.56L485.1 88.486V85.1191Z" fill="black"/>
<path d="M-39.7002 153.703V159.937L120.1 160.686L-39.7002 153.703Z" fill="black"/>
<path d="M62.5 -35.7119L120 36.6123L66.9 -35.7119H62.5Z" fill="black"/>
<path d="M-39.7002 292.989V296.107L26.0998 260.817L-39.7002 292.989Z" fill="black"/>
<path d="M315.7 -35.7119L261 76.3906L321 -35.7119H315.7Z" fill="black"/>
<path d="M485.1 83.8723L435.1 99.5841L485.1 85.9922V83.8723Z" fill="black"/>
<path d="M395.8 -35.7119L276.5 98.3373L405.2 -35.7119H395.8Z" fill="black"/>
<path d="M-39.7002 327.156V332.269L56.0998 267.427L-39.7002 327.156Z" fill="black"/>
<path d="M485.1 235.13L318.2 191.611L485.1 242.113V235.13Z" fill="black"/>
<path d="M485.1 13.1692L418.3 51.8252L485.1 16.536V13.1692Z" fill="black"/>
<path d="M111 -35.7119L162.2 58.3096L115.5 -35.7119H111Z" fill="black"/>
<path d="M485.099 144.35L444.899 147.842L485.099 145.971V144.35Z" fill="black"/>
<path d="M436.4 351.721L374.7 300.221L431.8 351.721H436.4Z" fill="black"/>
<path d="M485.099 -32.9686L343.899 72.1509L485.099 -24.7386V-32.9686Z" fill="black"/>
<path d="M364.9 351.721L292.5 261.316L359.5 351.721H364.9Z" fill="black"/>
<path d="M-39.7002 117.915V120.658L29.9998 131.132L-39.7002 117.915Z" fill="black"/>
<path d="M202.899 -35.712L210.699 64.1702L206.599 -35.712H202.899Z" fill="black"/>
<path d="M485.1 65.2926L320 126.768L485.1 72.4003V65.2926Z" fill="black"/>
<path d="M485.1 90.3567L306.8 139.861L485.1 97.7138V90.3567Z" fill="black"/>
<path d="M-39.7002 -35.7119V-29.7265L64.7998 47.0868L-39.3002 -35.7119H-39.7002Z" fill="black"/>
<path d="M352.699 -35.712L298.399 45.5904L357.199 -35.712H352.699Z" fill="black"/>
<path d="M-39.7002 232.636V236.127L44.2998 210.939L-39.7002 232.636Z" fill="black"/>
<path d="M51.7 351.722L110.1 283.263L47 351.722H51.7Z" fill="black"/>
<path d="M407.9 351.721L320.6 267.302L401.5 351.721H407.9Z" fill="black"/>
<path d="M216.4 351.721L215.7 292.865L214.2 351.721H216.4Z" fill="black"/>
<path d="M255.9 -35.7119L233.3 83.623L260.6 -35.7119H255.9Z" fill="black"/>
<path d="M-39.7002 -24.1151V-18.5038L56.9998 48.2091L-39.7002 -24.1151Z" fill="black"/>
<path d="M-39.7002 202.21V209.442L139.9 175.899L-39.7002 202.21Z" fill="black"/>
<path d="M256.7 -35.7119L233.6 83.4983L261.3 -35.7119H256.7Z" fill="black"/>
<path d="M485.1 240.367L307.1 190.364L485.1 247.974V240.367Z" fill="black"/>
<path d="M485.1 276.654L353.1 222.286L485.1 282.764V276.654Z" fill="black"/>
<path d="M-39.7002 171.659V176.148L76.1998 169.04L-39.7002 171.659Z" fill="black"/>
<path d="M271.5 -35.7119L255.5 25.2649L274 -35.7119H271.5Z" fill="black"/>
<path d="M485.1 -18.6285L327.3 89.9825L485.1 -10.0245V-18.6285Z" fill="black"/>
<path d="M21.5 -35.7119L124.4 67.163L29.1 -35.7119H21.5Z" fill="black"/>
<path d="M123.1 -35.7119L160.6 41.7249L126.6 -35.7119H123.1Z" fill="black"/>
<path d="M-25.0004 351.721L52.6996 289.373L-31.4004 351.721H-25.0004Z" fill="black"/>
<path d="M427.5 -35.7119L370.3 19.6535L432 -35.7119H427.5Z" fill="black"/>
<path d="M185.899 -35.712L198.399 39.2308L188.799 -35.712H185.899Z" fill="black"/>
<path d="M-39.7002 121.905V125.022L41.1998 135.996L-39.7002 121.905Z" fill="black"/>
<path d="M17.5996 -35.7119L75.1996 20.277L21.7996 -35.7119H17.5996Z" fill="black"/>
<path d="M280.199 351.721L244.399 248.348L275.999 351.721H280.199Z" fill="black"/>
<path d="M400.8 351.721L332.1 283.013L395.8 351.721H400.8Z" fill="black"/>
<path d="M371.7 -35.7119L317 36.2382L376.1 -35.7119H371.7Z" fill="black"/>
<path d="M485.1 143.727L344.5 155.074L485.1 149.213V143.727Z" fill="black"/>
<path d="M485.1 74.1462L413.5 99.0856L485.1 77.2637V74.1462Z" fill="black"/>
<path d="M485.1 279.397L317.3 208.071L485.1 287.253V279.397Z" fill="black"/>
<path d="M485.1 301.593L414.3 266.304L485.1 305.085V301.593Z" fill="black"/>
<path d="M78.1998 351.721L102.1 318.178L76.2998 351.721H78.1998Z" fill="black"/>
<path d="M-39.7002 312.816V319.425L86.1998 240.99L-39.7002 312.816Z" fill="black"/>
<path d="M485.1 101.455L311.8 142.48L485.1 108.562V101.455Z" fill="black"/>
<path d="M167.7 -35.712L185 31.0008L170.3 -35.712H167.7Z" fill="black"/>
<path d="M485.1 207.322L363.5 188.493L485.1 212.186V207.322Z" fill="black"/>
<path d="M-39.7002 293.613V296.979L28.4998 260.069L-39.7002 293.613Z" fill="black"/>
<path d="M190.3 -35.7119L203.5 56.4391L193.8 -35.7119H190.3Z" fill="black"/>
<path d="M-39.7002 -19.1272V-10.149L119 95.3446L-39.7002 -19.1272Z" fill="black"/>
<path d="M449 -35.7119L342.3 57.4367L457.6 -35.7119H449Z" fill="black"/>
<path d="M376.899 -35.712L304.899 55.5661L382.699 -35.712H376.899Z" fill="black"/>
<path d="M-39.7002 308.202V317.804L146 204.33L-39.7002 308.202Z" fill="black"/>
<path d="M302.2 -35.7119L263 57.9355L306.4 -35.7119H302.2Z" fill="black"/>
<path d="M-39.7002 132.255V135.248L36.9998 142.48L-39.7002 132.255Z" fill="black"/>
<path d="M485.1 321.295L300 213.682L485.1 331.022V321.295Z" fill="black"/>
<path d="M-39.7002 307.953V314.936L96.6998 232.511L-39.7002 307.953Z" fill="black"/>
<path d="M188.6 351.721L200.9 263.436L185.3 351.721H188.6Z" fill="black"/>
<path d="M485.1 169.04L316.2 166.422L485.1 175.649V169.04Z" fill="black"/>
<path d="M485.099 155.448L384.899 159.439L485.099 159.314V155.448Z" fill="black"/>
<path d="M0.100195 351.721L148.6 220.79L-11.7998 351.721H0.100195Z" fill="black"/>
<path d="M365.4 -35.7119L298.3 55.8156L370.8 -35.7119H365.4Z" fill="black"/>
<path d="M485.099 248.597L297.399 189.865L485.099 255.331V248.597Z" fill="black"/>
<path d="M11.8994 -35.712L87.9994 36.3628L17.4994 -35.712H11.8994Z" fill="black"/>
<path d="M485.1 293.987L393.6 250.717L485.1 298.351V293.987Z" fill="black"/>
<path d="M-39.7002 238.746V241.489L25.0998 220.665L-39.7002 238.746Z" fill="black"/>
<path d="M326.7 -35.712L278.2 54.0697L331.1 -35.712H326.7Z" fill="black"/>
<path d="M271 351.721L243.7 260.069L267.4 351.721H271Z" fill="black"/>
<path d="M454 -35.7119L339.3 62.2999L463.3 -35.7119H454Z" fill="black"/>
<path d="M-4.10039 351.721L55.8996 298.975L-8.90039 351.721H-4.10039Z" fill="black"/>
<path d="M235.2 -35.712L232.2 2.94401L236.7 -35.712H235.2Z" fill="black"/>
<path d="M319.299 -35.712L266.399 68.9087L324.299 -35.712H319.299Z" fill="black"/>
<path d="M329.5 351.721L256.2 230.89L323.4 351.721H329.5Z" fill="black"/>
<path d="M336.3 -35.712L309.2 10.7999L338.6 -35.712H336.3Z" fill="black"/>
<path d="M213.8 351.721V309.698L212.3 351.721H213.8Z" fill="black"/>
<path d="M128.5 351.722L181.9 235.255L123.1 351.722H128.5Z" fill="black"/>
<path d="M229.199 -35.712L222.899 78.8844L233.499 -35.712H229.199Z" fill="black"/>
<path d="M485.1 -17.1322L429.3 21.5238L485.1 -14.0148V-17.1322Z" fill="black"/>
<path d="M76.5996 -35.7119L125.2 31.375L80.3996 -35.7119H76.5996Z" fill="black"/>
<path d="M-39.7002 89.6084V94.0975L68.2998 121.905L-39.7002 89.6084Z" fill="black"/>
<path d="M445.799 351.721L354.399 278.275L438.999 351.721H445.799Z" fill="black"/>
<path d="M257.1 -35.712L246.7 19.5287L259.3 -35.712H257.1Z" fill="black"/>
<path d="M-39.7002 24.0178V26.6365L12.7998 53.4463L-39.7002 24.0178Z" fill="black"/>
<path d="M225 -35.7119L223.3 25.2649L227.3 -35.7119H225Z" fill="black"/>
<path d="M225.9 -35.7119L222.8 49.5808L229.1 -35.7119H225.9Z" fill="black"/>
<path d="M335.7 -35.7119L274 69.4076L341.2 -35.7119H335.7Z" fill="black"/>
<path d="M345.3 351.721L296.1 281.392L341.4 351.721H345.3Z" fill="black"/>
<path d="M315 351.722L258.6 245.604L310 351.722H315Z" fill="black"/>
<path d="M-39.7002 173.779V176.398L27.2998 171.908L-39.7002 173.779Z" fill="black"/>
<path d="M485.1 158.317L400.6 160.935L485.1 161.559V158.317Z" fill="black"/>
<path d="M418.8 351.721L371 308.327L415.3 351.721H418.8Z" fill="black"/>
<path d="M335.2 -35.712L307.7 11.9222L337.6 -35.712H335.2Z" fill="black"/>
<path d="M485.1 33.7441L299.6 124.274L485.1 41.6V33.7441Z" fill="black"/>
<path d="M485.1 23.0204L317 112.179L485.1 31.1257V23.0204Z" fill="black"/>
<path d="M362.8 -35.7119L320.3 23.7685L366.3 -35.7119H362.8Z" fill="black"/>
<path d="M485.1 224.032L436 213.682L485.1 226.152V224.032Z" fill="black"/>
<path d="M485.1 221.039L377 198.968L485.1 225.403V221.039Z" fill="black"/>
<path d="M485.099 203.831L382.899 189.615L485.099 207.946V203.831Z" fill="black"/>
<path d="M330.3 351.722L283.3 275.532L326.5 351.722H330.3Z" fill="black"/>
<path d="M460.1 351.722L348 266.678L451.7 351.722H460.1Z" fill="black"/>
<path d="M485.1 151.458L427.1 154.825L485.1 153.703V151.458Z" fill="black"/>
<path d="M485.1 198.469L315.6 177.271L485.1 205.203V198.469Z" fill="black"/>
<path d="M169.1 -35.7119L187.3 36.4876L171.9 -35.7119H169.1Z" fill="black"/>
<path d="M485.1 307.828L355.8 239.743L485.1 314.312V307.828Z" fill="black"/>
<path d="M-39.7002 195.725V198.219L22.1998 188.742L-39.7002 195.725Z" fill="black"/>
<path d="M-39.7002 249.345V253.46L53.8998 219.044L-39.7002 249.345Z" fill="black"/>
<path d="M10.5 -35.7119L50.9 2.07125L13.4 -35.7119H10.5Z" fill="black"/>
<path d="M485.1 0.450195L375.6 68.41L485.1 6.18625V0.450195Z" fill="black"/>
<path d="M485.1 62.0503L383.5 101.704L485.1 66.5394V62.0503Z" fill="black"/>
<path d="M485.099 240.367L429.899 225.403L485.099 242.736V240.367Z" fill="black"/>
<path d="M-39.7002 268.548V275.532L113.7 206.823L-39.7002 268.548Z" fill="black"/>
<path d="M485.1 99.335L400.6 120.533L485.1 102.826V99.335Z" fill="black"/>
<path d="M212.799 351.722L213.599 272.913L209.899 351.722H212.799Z" fill="black"/>
<path d="M108.2 351.722L155.9 266.803L104 351.722H108.2Z" fill="black"/>
<path d="M485.1 332.019L313.8 225.902L485.1 341.372V332.019Z" fill="black"/>
<path d="M485.1 190.239L357.2 178.642L485.1 195.351V190.239Z" fill="black"/>
<path d="M141.2 -35.712L188.8 86.9897L146.4 -35.712H141.2Z" fill="black"/>
<path d="M485.1 243.36L343.2 202.334L485.1 249.345V243.36Z" fill="black"/>
<path d="M-39.7002 179.266V182.757L48.6998 174.777L-39.7002 179.266Z" fill="black"/>
<path d="M448.1 -35.7119L295.6 96.9656L460.4 -35.7119H448.1Z" fill="black"/>
<path d="M226.899 -35.712L223.899 39.4802L229.699 -35.712H226.899Z" fill="black"/>
<path d="M117.6 -35.7119L170.6 68.2853L122.4 -35.7119H117.6Z" fill="black"/>
<path d="M75.5 351.721L137.1 267.551L70.5 351.721H75.5Z" fill="black"/>
<path d="M-39.7002 312.691V320.547L109.9 227.024L-39.7002 312.691Z" fill="black"/>
<path d="M-39.7002 279.647V288.251L141.6 198.469L-39.7002 279.647Z" fill="black"/>
<path d="M-39.7002 106.567V108.687L10.6998 118.538L-39.7002 106.567Z" fill="black"/>
<path d="M-39.7002 52.4487V54.6933L9.19981 74.3954L-39.7002 52.4487Z" fill="black"/>
<path d="M-39.7002 24.392V30.7515L88.1998 95.2198L-39.7002 24.392Z" fill="black"/>
<path d="M297.8 351.721L266.1 280.395L294.6 351.721H297.8Z" fill="black"/>
<path d="M73.5 -35.7119L171.2 98.0879L81 -35.7119H73.5Z" fill="black"/>
<path d="M-39.7002 56.1897V63.6715L127.5 127.142L-39.7002 56.1897Z" fill="black"/>
<path d="M-39.7002 225.528V231.514L103 192.109L-39.7002 225.528Z" fill="black"/>
<path d="M50 -35.7119L160.7 94.5964L58.2 -35.7119H50Z" fill="black"/>
<path d="M115.299 351.721L151.399 282.515L111.899 351.721H115.299Z" fill="black"/>
<path d="M77.0996 -35.7119L130.1 37.8593L81.1996 -35.7119H77.0996Z" fill="black"/>
<path d="M399.299 -35.712L316.399 56.439L405.899 -35.712H399.299Z" fill="black"/>
<path d="M56 -35.7119L142.4 69.2829L62.5 -35.7119H56Z" fill="black"/>
<path d="M185.1 351.721L200 257.201L181.5 351.721H185.1Z" fill="black"/>
<path d="M485.1 300.097L421.2 268.673L485.1 303.214V300.097Z" fill="black"/>
<path d="M355.4 -35.7119L290.6 59.0577L360.8 -35.7119H355.4Z" fill="black"/>
<path d="M-39.7002 154.202V159.688L101.1 160.312L-39.7002 154.202Z" fill="black"/>
<path d="M152.3 -35.7119L186.7 67.4124L156.5 -35.7119H152.3Z" fill="black"/>
<path d="M-39.7002 93.3494V96.8409L44.1998 117.291L-39.7002 93.3494Z" fill="black"/>
<path d="M438.9 -35.7119L367.5 29.8787L444.6 -35.7119H438.9Z" fill="black"/>
<path d="M485.1 55.4417L426.5 79.8822L485.1 58.0603V55.4417Z" fill="black"/>
<path d="M-39.7002 197.471V202.584L87.1998 181.759L-39.7002 197.471Z" fill="black"/>
<path d="M-39.7002 11.1742V13.294L0.299805 35.7395L-39.7002 11.1742Z" fill="black"/>
<path d="M6.69961 351.722L57.3996 304.835L2.59961 351.722H6.69961Z" fill="black"/>
<path d="M-23.2002 -35.7119L64.5998 35.2406L-16.6002 -35.7119H-23.2002Z" fill="black"/>
<path d="M-39.7002 -14.8876V-5.9094L119.7 97.4644L-39.7002 -14.8876Z" fill="black"/>
<path d="M311.2 351.722L275 281.642L307.9 351.722H311.2Z" fill="black"/>
<path d="M316.599 -35.712L267.899 63.5467L321.299 -35.712H316.599Z" fill="black"/>
<path d="M-39.7002 54.5685V58.6835L49.9998 93.848L-39.7002 54.5685Z" fill="black"/>
<path d="M-39.7002 -3.04138V1.5724L44.8998 53.3216L-39.7002 -3.04138Z" fill="black"/>
<path d="M46.5 -35.7119L161.4 96.8409L55 -35.7119H46.5Z" fill="black"/>
<path d="M-21.7 351.721L126.8 232.386L-34 351.721H-21.7Z" fill="black"/>
<path d="M485.1 160.436L293.2 163.055L485.1 166.671V160.436Z" fill="black"/>
</g>
</g>
<path d="M189.1 340L194.2 322.916L259 143.228L226.1 155.698L192.5 322.916L189.1 340Z" fill="#FFC773"/>
<path d="M260.9 -17.5061L255.6 0.0761623L193.8 167.17L226.1 155.698L257.4 0.0761623L260.9 -17.5061Z" fill="#FFC773"/>
<path d="M202 275.532L205.3 264.683L246.7 149.713L225.7 157.693L204.2 264.683L202 275.532Z" fill="#052938"/>
<path d="M247.9 46.8375L244.6 58.185L205.1 165.05L225.7 157.693L245.7 58.185L247.9 46.8375Z" fill="#052938"/>
<defs>
<radialGradient id="paint0_radial_766_513" cx="0" cy="0" r="1" gradientUnits="userSpaceOnUse" gradientTransform="translate(281.733 185.689) scale(280.347 349.584)">
<stop stop-color="#FFE300"/>
<stop offset="0.2396" stop-color="#FECB00"/>
<stop offset="0.743" stop-color="#FC8E00"/>
<stop offset="1" stop-color="#FB6C00"/>
</radialGradient>
<radialGradient id="paint1_radial_766_513" cx="0" cy="0" r="1" gradientUnits="userSpaceOnUse" gradientTransform="translate(228.583 151.981) scale(264.477 329.795)">
<stop stop-color="#00B77E"/>
<stop offset="0.5265" stop-color="#009F7A"/>
<stop offset="1" stop-color="#008676"/>
</radialGradient>
</defs>
</svg>
