<svg width="16" height="18" viewBox="0 0 16 18" fill="none" xmlns="http://www.w3.org/2000/svg">
<path d="M10.5559 14.0744C8.72585 14.0744 6.90588 14.0744 5.0758 14.0744C5.04547 13.9127 5.01514 13.761 4.97469 13.5992C4.81292 12.9825 4.50959 12.4466 4.0546 12.0017C2.75029 10.7277 2.23463 9.15042 2.36607 7.36078C2.52785 4.91393 4.45904 2.82097 6.87555 2.42664C9.71673 1.96154 12.386 3.65007 13.0938 6.43057C13.6094 8.4831 13.1646 10.3435 11.6681 11.9006C11.1019 12.487 10.6975 13.1544 10.5762 13.9733C10.5762 13.9936 10.566 14.034 10.5559 14.0744ZM8.10909 7.69444C8.13942 7.49222 8.16975 7.32034 8.20008 7.14845C8.32142 6.43057 8.45286 5.70259 8.57419 4.98471C8.59441 4.87349 8.59441 4.76227 8.46297 4.71171C8.34164 4.66116 8.26075 4.73194 8.18997 4.83305C8.09898 4.9746 7.99787 5.11615 7.90687 5.25771C7.17888 6.33958 6.45089 7.42145 5.71279 8.50332C5.61168 8.64487 5.57124 8.78643 5.65213 8.9482C5.73301 9.12009 5.88468 9.17064 6.06668 9.17064C6.1779 9.17064 6.29923 9.17064 6.41045 9.17064C6.77444 9.17064 7.13844 9.17064 7.52265 9.17064C7.45187 9.47397 7.39121 9.74696 7.32043 10.0301C7.17888 10.6165 7.03733 11.1928 6.90588 11.7793C6.87555 11.9006 6.83511 12.0421 6.99688 12.1129C7.13843 12.1736 7.21932 12.0725 7.2901 11.9714C8.13942 10.7884 8.99885 9.60541 9.84817 8.42243C9.95939 8.27077 10.0302 8.1191 9.93917 7.92699C9.84817 7.72478 9.66617 7.70455 9.47406 7.70455C9.03929 7.69444 8.5843 7.69444 8.10909 7.69444Z" fill="#FDB60F"/>
<path d="M5.08579 14.8631C6.90576 14.8631 8.72573 14.8631 10.5659 14.8631C10.5558 15.0653 10.5558 15.2675 10.5154 15.4495C10.4446 15.7832 10.1312 16.0259 9.77727 16.0259C8.47296 16.0259 7.15854 16.0259 5.85422 16.0259C5.44979 16.0259 5.13635 15.7529 5.08579 15.3484C5.07568 15.2069 5.08579 15.0451 5.08579 14.8631Z" fill="#FDB60F"/>
<path d="M5.88449 16.8246C7.16858 16.8246 8.46278 16.8246 9.74687 16.8246C9.79742 17.3706 9.3121 17.9469 8.73577 17.9772C8.119 18.0076 7.50224 18.0076 6.88547 17.9772C6.31926 17.9469 5.83393 17.3706 5.88449 16.8246Z" fill="#FDB60F"/>
<path d="M3.53873 3.15461C3.46795 3.24561 3.39717 3.37705 3.29607 3.44783C3.17473 3.53883 3.00285 3.52871 2.89163 3.41749C2.66919 3.21528 2.45686 3.00295 2.25464 2.7805C2.1232 2.62884 2.15353 2.41651 2.28497 2.28507C2.42652 2.14352 2.63885 2.11318 2.78041 2.24462C3.00285 2.44684 3.21518 2.66928 3.42751 2.89173C3.47806 2.94228 3.48817 3.03328 3.53873 3.15461Z" fill="#FDB60F"/>
<path d="M12.4668 3.52874C12.3758 3.45796 12.2343 3.38719 12.1837 3.28608C12.1331 3.17486 12.1433 2.98275 12.214 2.90186C12.4061 2.66931 12.6286 2.45698 12.851 2.25476C12.9926 2.13343 13.1948 2.15365 13.3363 2.2851C13.4779 2.41654 13.5183 2.62887 13.397 2.77042C13.1847 3.01308 12.9521 3.23552 12.7196 3.45796C12.669 3.4883 12.578 3.4883 12.4668 3.52874Z" fill="#FDB60F"/>
<path d="M3.15451 12.1028C3.24551 12.1736 3.37695 12.2342 3.44773 12.3454C3.53873 12.4668 3.52862 12.6387 3.42751 12.7499C3.22529 12.9723 3.01296 13.1847 2.80063 13.3869C2.64897 13.5284 2.42652 13.4981 2.28497 13.3464C2.15353 13.2049 2.1232 12.9925 2.25464 12.851C2.45686 12.6286 2.66919 12.4263 2.89163 12.2241C2.94218 12.1634 3.03318 12.1432 3.15451 12.1028Z" fill="#FDB60F"/>
<path d="M12.578 12.1331C12.6286 12.1635 12.7297 12.1938 12.8106 12.2646C12.9926 12.4263 13.1645 12.5982 13.3263 12.7802C13.4981 12.9622 13.5082 13.1948 13.3465 13.3464C13.1847 13.5082 12.9623 13.5082 12.7803 13.3262C12.5983 13.1543 12.4163 12.9622 12.2343 12.7802C12.123 12.6589 12.1028 12.5072 12.1635 12.3556C12.2343 12.214 12.3556 12.1331 12.578 12.1331Z" fill="#FDB60F"/>
<path d="M8.20995 0.788654C8.20995 0.920096 8.22006 1.04143 8.20995 1.17287C8.18973 1.40542 8.02796 1.54697 7.81563 1.54697C7.6033 1.54697 7.44152 1.39531 7.43141 1.16276C7.4213 0.899874 7.4213 0.636989 7.43141 0.374105C7.43141 0.151664 7.59319 0 7.80552 0C8.02796 0 8.18973 0.151664 8.19984 0.394327C8.22006 0.525769 8.20995 0.657211 8.20995 0.788654Z" fill="#FDB60F"/>
<path d="M0.768432 8.21005C0.636989 8.21005 0.515658 8.22017 0.384216 8.21005C0.151664 8.18983 0 8.02806 0 7.81573C0 7.6034 0.141553 7.43151 0.374105 7.4214C0.636989 7.41129 0.909985 7.41129 1.18298 7.4214C1.41553 7.43151 1.55709 7.6034 1.55709 7.81573C1.55709 8.01795 1.41553 8.17972 1.19309 8.19994C1.04143 8.22017 0.899874 8.21005 0.768432 8.21005Z" fill="#FDB60F"/>
<path d="M14.853 8.21008C14.7216 8.21008 14.6002 8.22019 14.4688 8.21008C14.2261 8.18985 14.0745 8.03819 14.0745 7.81575C14.0745 7.60342 14.2261 7.44164 14.4587 7.43153C14.7216 7.42142 14.9844 7.42142 15.2473 7.43153C15.4799 7.44164 15.6315 7.60342 15.6315 7.81575C15.6315 8.03819 15.4799 8.19996 15.2372 8.21008C15.1159 8.22019 14.9844 8.21008 14.853 8.21008Z" fill="#FDB60F"/>
</svg>
