<svg width="20" height="16" viewBox="0 0 20 16" fill="none" xmlns="http://www.w3.org/2000/svg">
<path opacity="0.5" d="M0 1.33333C0 0.596954 0.596954 0 1.33333 0H18.6667C19.403 0 20 0.596954 20 1.33333C20 2.06971 19.403 2.66667 18.6667 2.66667H1.33333C0.596955 2.66667 0 2.06971 0 1.33333ZM0 8C0 7.26362 0.596954 6.66667 1.33333 6.66667H14.4167C15.153 6.66667 15.75 7.26362 15.75 8C15.75 8.73638 15.153 9.33333 14.4167 9.33333H1.33333C0.596953 9.33333 0 8.73638 0 8ZM0 14.6667C0 13.9303 0.596954 13.3333 1.33333 13.3333H10.0417C10.778 13.3333 11.375 13.9303 11.375 14.6667C11.375 15.403 10.778 16 10.0417 16H1.33333C0.596954 16 0 15.403 0 14.6667Z" fill="white"/>
</svg>
