<svg width="98" height="100" viewBox="0 0 98 100" fill="none" xmlns="http://www.w3.org/2000/svg">
<path d="M14.9307 33.1337L26.0292 49.7163H73.9759L83.7539 32.6293L14.9307 33.1337Z" fill="#230202"/>
<path d="M73.9756 24.8739H26.0288V49.7163H73.9756V24.8739Z" fill="#350404"/>
<path d="M25.4003 50.6936L14.459 34.1425H16.6598L27.7583 50.6936H25.4003Z" fill="#842407"/>
<path d="M74.6676 50.6936L84.8858 33.5435H82.6535L72.3096 50.6936H74.6676Z" fill="#842407"/>
<path d="M73.9445 48.739H25.4004V50.6936H73.9445V48.739Z" fill="#842407"/>
<path d="M80.7039 56.5574H20.0552V62.6419H80.7039V56.5574Z" fill="#230202"/>
<path d="M22.8221 15.6368C22.8221 15.6368 48.509 14.3758 75.5478 15.6368L79.132 16.3934L81.1756 33.2598L15.4336 32.7554L18.4833 17.1501L22.8221 15.6368Z" fill="#480101"/>
<path d="M14.2705 61.5069L25.4004 50.6936V57.6293L21.2817 61.3178L14.2705 61.5069Z" fill="#842407"/>
<path d="M85.4201 61.6015L74.6675 50.6936V57.6293L78.3775 61.3178L85.4201 61.6015Z" fill="#842407"/>
<path d="M74.6676 50.6936H25.4004V57.6608H74.6676V50.6936Z" fill="#6B1A08"/>
<path d="M82.3075 16.4565C81.8045 15.6053 80.8613 15.0694 79.8866 15.0694H76.0194C75.5793 15.0694 75.3277 15.5738 75.5793 15.9206C81.4272 24.0858 79.5408 31.6204 79.5408 31.6204H52.0932H47.0627H19.6466C19.6466 31.6204 17.7916 24.1173 23.6396 15.9521C23.8911 15.6053 23.6396 15.1009 23.1994 15.1009H19.3322C18.3261 15.1009 17.4144 15.6368 16.9113 16.488C15.1821 19.4515 11.5979 25.7566 13.2328 32.913C13.4843 34.0479 14.4904 34.8361 15.6537 34.8361H47.1256H52.1561H83.628C84.7599 34.8361 85.766 34.0479 86.0489 32.913C87.621 25.7251 84.0367 19.4199 82.3075 16.4565Z" fill="#A02F05"/>
<path d="M20.1499 23.1085H78.5978" stroke="#2B0101"  strokeWidth="3.4176" stroke-miterlimit="10"/>
<path d="M59.9219 62.9256C56.9665 64.1866 53.5081 62.831 52.2505 59.8361C50.9928 56.8726 52.3448 53.4048 55.3316 52.1438C58.287 50.8827 61.7455 52.2383 63.0031 55.2333C64.2607 58.1967 62.8773 61.6646 59.9219 62.9256Z" fill="#FDBB00"/>
<path d="M55.8977 53.5624C53.7283 54.5082 52.6908 57.0303 53.634 59.2371C54.5772 61.4124 57.0924 62.4527 59.2933 61.5069C61.4626 60.5612 62.5002 58.0391 61.557 55.8323C60.6138 53.657 58.0985 52.6482 55.8977 53.5624Z" fill="#FFD85C"/>
<mask id="mask0_294_132" style="mask-type:luminance" maskUnits="userSpaceOnUse" x="53" y="53" width="9" height="9">
<path d="M55.8977 53.5624C53.7283 54.5082 52.6908 57.0303 53.634 59.2371C54.5772 61.4124 57.0924 62.4527 59.2933 61.5069C61.4626 60.5612 62.5002 58.0391 61.557 55.8323C60.6138 53.657 58.0985 52.6482 55.8977 53.5624Z" fill="white"/>
</mask>
<g mask="url(#mask0_294_132)">
<path d="M54.7656 61.8537L60.4249 53.2156C60.4249 53.2156 64.355 56.6835 61.8712 60.0883C59.4503 63.5246 54.7656 61.8537 54.7656 61.8537Z" fill="#FBCC1C"/>
</g>
<path d="M56.1807 62.3897L56.8409 62.5473" stroke="#FFFCFF"  strokeWidth="2.091" stroke-miterlimit="10" stroke-linecap="round" stroke-linejoin="round"/>
<path d="M57.0923 52.459C57.0923 52.459 58.1613 52.1438 59.2617 52.8058" stroke="#FFFCFF"  strokeWidth="2.091" stroke-miterlimit="10" stroke-linecap="round" stroke-linejoin="round"/>
<path d="M65.2663 59.3001C65.1091 56.0845 67.5929 53.3102 70.7999 53.1526C74.0068 52.995 76.7736 55.4855 76.9308 58.7011C77.088 61.9168 74.6042 64.691 71.3972 64.8487C68.1903 65.0063 65.4235 62.5158 65.2663 59.3001Z" fill="#FDBB00"/>
<path d="M75.4218 58.7957C75.296 56.4313 73.2839 54.5712 70.9258 54.6974C68.5678 54.8235 66.7128 56.8411 66.8386 59.2055C66.9643 61.57 68.9765 63.43 71.3345 63.3039C73.6926 63.2093 75.5161 61.1602 75.4218 58.7957Z" fill="#FFD85C"/>
<mask id="mask1_294_132" style="mask-type:luminance" maskUnits="userSpaceOnUse" x="66" y="54" width="10" height="10">
<path d="M75.4218 58.7957C75.296 56.4313 73.2839 54.5712 70.9258 54.6974C68.5678 54.8235 66.7128 56.8411 66.8386 59.2055C66.9643 61.57 68.9765 63.43 71.3345 63.3039C73.6926 63.2093 75.5161 61.1602 75.4218 58.7957Z" fill="white"/>
</mask>
<g mask="url(#mask1_294_132)">
<path d="M68.0647 54.8235L74.1642 63.1778C74.1642 63.1778 69.5739 65.6683 67.2158 62.169C64.8892 58.6381 68.0647 54.8235 68.0647 54.8235Z" fill="#FBCC1C"/>
</g>
<path d="M67.0897 55.9899L66.7124 56.5574" stroke="#FFFCFF"  strokeWidth="2.091" stroke-miterlimit="10" stroke-linecap="round" stroke-linejoin="round"/>
<path d="M76.0504 60.3089C76.0504 60.3089 75.9561 61.4123 74.9814 62.232" stroke="#FFFCFF"  strokeWidth="2.091" stroke-miterlimit="10" stroke-linecap="round" stroke-linejoin="round"/>
<path d="M32.9457 61.6961C31.3737 64.5019 27.7895 65.5107 24.9913 63.9029C22.1931 62.3266 21.187 58.7327 22.759 55.9269C24.331 53.1211 27.9153 52.1122 30.7135 53.7201C33.5431 55.3279 34.5492 58.8903 32.9457 61.6961Z" fill="#FDBB00"/>
<path d="M24.111 56.715C22.9477 58.7957 23.6708 61.4124 25.7459 62.6104C27.821 63.7768 30.4305 63.0517 31.6252 60.971C32.7885 58.8903 32.0654 56.2737 29.9903 55.0757C27.9153 53.9092 25.2743 54.6343 24.111 56.715Z" fill="#FFD85C"/>
<mask id="mask2_294_132" style="mask-type:luminance" maskUnits="userSpaceOnUse" x="23" y="54" width="10" height="10">
<path d="M24.111 56.715C22.9477 58.7957 23.6708 61.4124 25.7459 62.6104C27.821 63.7768 30.4305 63.0517 31.6252 60.971C32.7885 58.8903 32.0654 56.2737 29.9903 55.0757C27.9153 53.9092 25.2743 54.6343 24.111 56.715Z" fill="white"/>
</mask>
<g mask="url(#mask2_294_132)">
<path d="M28.1982 63.966L27.4751 53.657C27.4751 53.657 32.6942 54.0353 32.7885 58.2283C32.9457 62.4527 28.1982 63.966 28.1982 63.966Z" fill="#FBCC1C"/>
</g>
<path d="M29.6445 63.5561L30.2733 63.2409" stroke="#FFFCFF"  strokeWidth="2.091" stroke-miterlimit="10" stroke-linecap="round" stroke-linejoin="round"/>
<path d="M24.394 55.0757C24.394 55.0757 25.0543 54.1614 26.3119 54.0353" stroke="#FFFCFF"  strokeWidth="2.091" stroke-miterlimit="10" stroke-linecap="round" stroke-linejoin="round"/>
<path d="M20.2752 68.1589C17.477 66.5511 16.5024 62.9571 18.1059 60.1513C19.7093 57.3455 23.2935 56.3682 26.0917 57.976C28.8899 59.5839 29.8646 63.1778 28.2611 65.9836C26.6577 68.7894 23.0734 69.7667 20.2752 68.1589Z" fill="#FDBB00"/>
<path d="M25.3059 59.3317C23.2308 58.1652 20.6212 58.8903 19.4265 60.9395C18.2632 63.0202 18.9863 65.6368 21.03 66.8348C23.105 68.0013 25.7146 67.3077 26.9093 65.227C28.0726 63.1463 27.3809 60.4981 25.3059 59.3317Z" fill="#FFD85C"/>
<mask id="mask3_294_132" style="mask-type:luminance" maskUnits="userSpaceOnUse" x="18" y="58" width="10" height="10">
<path d="M25.3059 59.3317C23.2308 58.1652 20.6212 58.8903 19.4265 60.9395C18.2632 63.0202 18.9863 65.6368 21.03 66.8348C23.105 68.0013 25.7146 67.3077 26.9093 65.227C28.0726 63.1463 27.3809 60.4981 25.3059 59.3317Z" fill="white"/>
</mask>
<g mask="url(#mask3_294_132)">
<path d="M18.043 63.3985L28.324 62.7365C28.324 62.7365 27.9467 67.9697 23.7337 68.0643C19.5207 68.1589 18.043 63.3985 18.043 63.3985Z" fill="#FBCC1C"/>
</g>
<path d="M18.4517 64.8487L18.7661 65.4792" stroke="#FFFCFF"  strokeWidth="2.091" stroke-miterlimit="10" stroke-linecap="round" stroke-linejoin="round"/>
<path d="M26.9092 59.6154C26.9092 59.6154 27.7895 60.2774 27.9467 61.57" stroke="#FFFCFF"  strokeWidth="2.091" stroke-miterlimit="10" stroke-linecap="round" stroke-linejoin="round"/>
<path d="M40.3974 62.1375C37.8507 64.1236 34.1722 63.6822 32.1914 61.1602C30.2107 58.6066 30.6508 54.918 33.1661 52.9319C35.7127 50.9458 39.3913 51.3871 41.372 53.9092C43.3842 56.4628 42.9441 60.1513 40.3974 62.1375Z" fill="#FDBB00"/>
<path d="M34.1409 54.1614C32.2859 55.6431 31.94 58.3543 33.4177 60.2144C34.8954 62.0744 37.5993 62.4212 39.4543 60.9395C41.3093 59.4578 41.6551 56.7465 40.1774 54.8865C38.6997 52.995 35.9959 52.6797 34.1409 54.1614Z" fill="#FFD85C"/>
<mask id="mask4_294_132" style="mask-type:luminance" maskUnits="userSpaceOnUse" x="32" y="53" width="10" height="9">
<path d="M34.1409 54.1614C32.2859 55.6431 31.94 58.3543 33.4177 60.2144C34.8954 62.0744 37.5993 62.4212 39.4543 60.9395C41.3093 59.4578 41.6551 56.7465 40.1774 54.8865C38.6997 52.995 35.9959 52.6797 34.1409 54.1614Z" fill="white"/>
</mask>
<g mask="url(#mask4_294_132)">
<path d="M35.147 62.4527L38.4168 52.6482C38.4168 52.6482 43.1014 54.9811 41.5923 58.9218C40.1146 62.831 35.147 62.4527 35.147 62.4527Z" fill="#FBCC1C"/>
</g>
<path d="M36.6558 62.5788L37.3475 62.5473" stroke="#FFFCFF"  strokeWidth="2.091" stroke-miterlimit="10" stroke-linecap="round" stroke-linejoin="round"/>
<path d="M34.9897 52.7427C34.9897 52.7427 35.933 52.1753 37.1591 52.5221" stroke="#FFFCFF"  strokeWidth="2.091" stroke-miterlimit="10" stroke-linecap="round" stroke-linejoin="round"/>
<path d="M29.3616 61.6646C30.3362 58.575 33.6375 56.8726 36.6872 57.8499C39.7684 58.8272 41.4662 62.1375 40.4915 65.1955C39.5168 68.285 36.2156 69.9874 33.1659 69.0101C30.1161 68.0328 28.3869 64.7541 29.3616 61.6646Z" fill="#FDBB00"/>
<path d="M39.0139 64.7541C39.737 62.4842 38.4794 60.0568 36.2156 59.3317C33.9519 58.6066 31.531 59.8676 30.8079 62.1375C30.0848 64.4073 31.3424 66.8348 33.6061 67.5599C35.8698 68.285 38.2907 67.024 39.0139 64.7541Z" fill="#FFD85C"/>
<mask id="mask5_294_132" style="mask-type:luminance" maskUnits="userSpaceOnUse" x="30" y="59" width="10" height="9">
<path d="M39.0139 64.7541C39.737 62.4842 38.4794 60.0568 36.2156 59.3317C33.9519 58.6066 31.531 59.8676 30.8079 62.1375C30.0848 64.4073 31.3424 66.8348 33.6061 67.5599C35.8698 68.285 38.2907 67.024 39.0139 64.7541Z" fill="white"/>
</mask>
<g mask="url(#mask5_294_132)">
<path d="M33.5119 58.4805L36.3101 68.4426C36.3101 68.4426 31.1538 69.1677 30.1477 65.0378C29.2045 60.908 33.5119 58.4805 33.5119 58.4805Z" fill="#FBCC1C"/>
</g>
<path d="M32.2227 59.174L31.6567 59.6154" stroke="#FFFCFF"  strokeWidth="2.091" stroke-miterlimit="10" stroke-linecap="round" stroke-linejoin="round"/>
<path d="M39.0765 66.3934C39.0765 66.3934 38.6049 67.4023 37.4102 67.8121" stroke="#FFFCFF"  strokeWidth="2.091" stroke-miterlimit="10" stroke-linecap="round" stroke-linejoin="round"/>
<path d="M50.8982 63.2409C48.7917 65.6999 45.0817 65.9521 42.6608 63.8398C40.2084 61.7276 39.9569 58.0076 42.0634 55.5801C44.1699 53.1211 47.8799 52.8688 50.3008 54.9811C52.7532 57.0933 53.0047 60.8134 50.8982 63.2409Z" fill="#FDBB00"/>
<path d="M43.2268 56.5889C41.6862 58.3859 41.8749 61.1286 43.667 62.6734C45.4591 64.2182 48.1944 64.029 49.735 62.232C51.2756 60.4351 51.0869 57.6923 49.2948 56.1475C47.5027 54.6028 44.7674 54.7919 43.2268 56.5889Z" fill="#FFD85C"/>
<mask id="mask6_294_132" style="mask-type:luminance" maskUnits="userSpaceOnUse" x="42" y="55" width="9" height="9">
<path d="M43.2268 56.5889C41.6862 58.3859 41.8749 61.1286 43.667 62.6734C45.4591 64.2182 48.1944 64.029 49.735 62.232C51.2756 60.4351 51.0869 57.6923 49.2948 56.1475C47.5027 54.6028 44.7674 54.7919 43.2268 56.5889Z" fill="white"/>
</mask>
<g mask="url(#mask6_294_132)">
<path d="M45.8052 64.5334L47.1257 54.2875C47.1257 54.2875 52.1562 55.6746 51.433 59.8361C50.7413 63.9975 45.8052 64.5334 45.8052 64.5334Z" fill="#FBCC1C"/>
</g>
<path d="M47.314 64.4073L47.9742 64.2497" stroke="#FFFCFF"  strokeWidth="2.091" stroke-miterlimit="10" stroke-linecap="round" stroke-linejoin="round"/>
<path d="M43.8242 55.0757C43.8242 55.0757 44.6417 54.319 45.9307 54.4451" stroke="#FFFCFF"  strokeWidth="2.091" stroke-miterlimit="10" stroke-linecap="round" stroke-linejoin="round"/>
<path d="M55.1428 67.9067C51.9359 67.9067 49.2949 65.29 49.2949 62.0429C49.2949 58.7957 51.9045 56.1791 55.1428 56.1791C58.3812 56.1791 60.9908 58.7957 60.9908 62.0429C60.9908 65.29 58.3498 67.9067 55.1428 67.9067Z" fill="#FDBB00"/>
<path d="M55.1428 57.7238C52.7848 57.7238 50.8354 59.6469 50.8354 62.0429C50.8354 64.4073 52.7533 66.3619 55.1428 66.3619C57.5008 66.3619 59.4501 64.4388 59.4501 62.0429C59.4501 59.6784 57.5008 57.7238 55.1428 57.7238Z" fill="#FFD85C"/>
<mask id="mask7_294_132" style="mask-type:luminance" maskUnits="userSpaceOnUse" x="50" y="57" width="10" height="10">
<path d="M55.1428 57.7238C52.7848 57.7238 50.8354 59.6469 50.8354 62.0429C50.8354 64.4073 52.7533 66.3619 55.1428 66.3619C57.5008 66.3619 59.4501 64.4388 59.4501 62.0429C59.4501 59.6784 57.5008 57.7238 55.1428 57.7238Z" fill="white"/>
</mask>
<g mask="url(#mask7_294_132)">
<path d="M50.8354 64.8802L59.4501 59.174C59.4501 59.174 61.6824 63.9029 58.0982 66.0782C54.4825 68.285 50.8354 64.8802 50.8354 64.8802Z" fill="#FBCC1C"/>
</g>
<path d="M51.936 65.9206L52.502 66.3304" stroke="#FFFCFF"  strokeWidth="2.091" stroke-miterlimit="10" stroke-linecap="round" stroke-linejoin="round"/>
<path d="M56.6836 57.1564C56.6836 57.1564 57.784 57.2825 58.5386 58.3228" stroke="#FFFCFF"  strokeWidth="2.091" stroke-miterlimit="10" stroke-linecap="round" stroke-linejoin="round"/>
<path d="M74.8875 66.9609C71.6805 66.9609 69.0396 64.3443 69.0396 61.0971C69.0396 57.8815 71.6491 55.2333 74.8875 55.2333C78.1258 55.2333 80.7354 57.8499 80.7354 61.0971C80.7354 64.3443 78.1258 66.9609 74.8875 66.9609Z" fill="#FDBB00"/>
<path d="M74.8874 56.7781C72.5294 56.7781 70.5801 58.7011 70.5801 61.0971C70.5801 63.4615 72.4979 65.4161 74.8874 65.4161C77.2455 65.4161 79.1948 63.4931 79.1948 61.0971C79.1948 58.7327 77.2769 56.7781 74.8874 56.7781Z" fill="#FFD85C"/>
<mask id="mask8_294_132" style="mask-type:luminance" maskUnits="userSpaceOnUse" x="70" y="56" width="10" height="10">
<path d="M74.8874 56.7781C72.5294 56.7781 70.5801 58.7011 70.5801 61.0971C70.5801 63.4615 72.4979 65.4161 74.8874 65.4161C77.2455 65.4161 79.1948 63.4931 79.1948 61.0971C79.1948 58.7327 77.2769 56.7781 74.8874 56.7781Z" fill="white"/>
</mask>
<g mask="url(#mask8_294_132)">
<path d="M70.5801 63.9344L79.1948 58.2282C79.1948 58.2282 81.427 62.9571 77.8428 65.1324C74.2272 67.3392 70.5801 63.9344 70.5801 63.9344Z" fill="#FBCC1C"/>
</g>
<path d="M71.6807 64.9748L72.2466 65.3846" stroke="#FFFCFF"  strokeWidth="2.091" stroke-miterlimit="10" stroke-linecap="round" stroke-linejoin="round"/>
<path d="M76.4282 56.2421C76.4282 56.2421 77.5286 56.3682 78.2832 57.4086" stroke="#FFFCFF"  strokeWidth="2.091" stroke-miterlimit="10" stroke-linecap="round" stroke-linejoin="round"/>
<path d="M64.1033 32.6923C62.4684 32.314 61.2737 30.6116 61.4309 28.9092C61.5881 27.2068 63.0658 26.1349 64.7007 26.5448C66.3356 26.9231 67.5303 28.6255 67.3731 30.3279C67.2159 31.9987 65.7382 33.0706 64.1033 32.6923Z" fill="#EB8E1C"/>
<path d="M64.5433 32.2194C62.9084 31.8411 61.7136 30.1387 61.8708 28.4363C62.028 26.7339 63.5057 25.662 65.1406 26.0719C66.7755 26.4502 67.9703 28.1526 67.8131 29.855C67.6559 31.5259 66.2096 32.5977 64.5433 32.2194Z" fill="#FDBB00"/>
<path d="M65.0779 26.86C63.8832 26.5763 62.7827 27.3644 62.657 28.6255C62.5312 29.8865 63.4116 31.116 64.6063 31.3998C65.801 31.6835 66.9014 30.8953 67.0272 29.6343C67.1844 28.4048 66.3041 27.1438 65.0779 26.86Z" fill="#FFD85C"/>
<mask id="mask9_294_132" style="mask-type:luminance" maskUnits="userSpaceOnUse" x="62" y="26" width="6" height="6">
<path d="M65.0779 26.86C63.8832 26.5763 62.7827 27.3644 62.657 28.6255C62.5312 29.8865 63.4116 31.116 64.6063 31.3998C65.801 31.6835 66.9014 30.8953 67.0272 29.6343C67.1844 28.4048 66.3041 27.1438 65.0779 26.86Z" fill="white"/>
</mask>
<g mask="url(#mask9_294_132)">
<path d="M62.5312 30.1072L67.2159 28.1526C67.2159 28.1526 68.0962 30.8953 66.1469 31.6204C64.1976 32.314 62.5312 30.1072 62.5312 30.1072Z" fill="#FBCC1C"/>
</g>
<path d="M63.0342 30.8008L63.2857 31.0845" stroke="#FFFCFF"  strokeWidth="1.0938" stroke-miterlimit="10" stroke-linecap="round" stroke-linejoin="round"/>
<path d="M65.8955 26.7654C65.8955 26.7654 66.4614 26.9861 66.7758 27.6166" stroke="#FFFCFF"  strokeWidth="1.0938" stroke-miterlimit="10" stroke-linecap="round" stroke-linejoin="round"/>
<path d="M27.6008 49.7163C24.5196 50.2837 21.2184 48.3291 20.2437 45.3027C19.2691 42.2762 20.9669 39.3758 24.048 38.7768C27.1292 38.2093 30.4304 40.1639 31.4051 43.1904C32.3798 46.2169 30.6505 49.1488 27.6008 49.7163Z" fill="#EB8E1C"/>
<path d="M28.0407 48.5813C24.9596 49.1488 21.6583 47.1942 20.6837 44.1677C19.709 41.1412 21.4068 38.2409 24.488 37.6419C27.5691 37.0744 30.8704 39.029 31.845 42.0555C32.8197 45.082 31.1219 48.0139 28.0407 48.5813Z" fill="#FDBB00"/>
<path d="M24.9284 39.0921C22.6646 39.5334 21.407 41.6772 22.1301 43.884C22.8533 46.0908 25.2742 47.5725 27.5379 47.1312C29.8016 46.6898 31.0592 44.546 30.3361 42.3392C29.6444 40.1324 27.1921 38.6822 24.9284 39.0921Z" fill="#FFD85C"/>
<mask id="mask10_294_132" style="mask-type:luminance" maskUnits="userSpaceOnUse" x="21" y="39" width="10" height="9">
<path d="M24.9284 39.0921C22.6646 39.5334 21.407 41.6772 22.1301 43.884C22.8533 46.0908 25.2742 47.5725 27.5379 47.1312C29.8016 46.6898 31.0592 44.546 30.3361 42.3392C29.6444 40.1324 27.1921 38.6822 24.9284 39.0921Z" fill="white"/>
</mask>
<g mask="url(#mask10_294_132)">
<path d="M23.0103 46.5322L29.487 39.6595C29.487 39.6595 33.0712 43.6633 30.273 46.343C27.5062 49.0542 23.0103 46.5322 23.0103 46.5322Z" fill="#FBCC1C"/>
</g>
<path d="M24.3623 47.3203L25.0226 47.604" stroke="#FFFCFF"  strokeWidth="2.0327" stroke-miterlimit="10" stroke-linecap="round" stroke-linejoin="round"/>
<path d="M26.249 38.3039C26.249 38.3039 27.3494 38.2409 28.387 39.0605" stroke="#FFFCFF"  strokeWidth="2.0327" stroke-miterlimit="10" stroke-linecap="round" stroke-linejoin="round"/>
<path d="M78.3772 46.6583C75.7047 47.1627 72.8122 45.4288 71.9633 42.8121C71.1144 40.1955 72.5921 37.6419 75.2646 37.1375C77.937 36.633 80.8295 38.367 81.6784 40.9836C82.5587 43.6003 81.0496 46.1538 78.3772 46.6583Z" fill="#EB8E1C"/>
<path d="M78.7859 45.6494C76.1134 46.1538 73.2209 44.4199 72.372 41.8033C71.5231 39.1866 73.0008 36.633 75.6732 36.1286C78.3457 35.6242 81.2382 37.3581 82.0871 39.9748C82.936 42.5914 81.4583 45.145 78.7859 45.6494Z" fill="#FDBB00"/>
<path d="M76.082 37.3581C74.1012 37.7365 73.0008 39.5965 73.6296 41.5511C74.2584 43.4742 76.3964 44.7667 78.3771 44.3884C80.3579 44.0101 81.4583 42.1501 80.8295 40.1955C80.1692 38.2724 78.0313 37.0114 76.082 37.3581Z" fill="#FFD85C"/>
<mask id="mask11_294_132" style="mask-type:luminance" maskUnits="userSpaceOnUse" x="73" y="37" width="9" height="8">
<path d="M76.082 37.3581C74.1012 37.7365 73.0008 39.5965 73.6296 41.5511C74.2584 43.4742 76.3964 44.7667 78.3771 44.3884C80.3579 44.0101 81.4583 42.1501 80.8295 40.1955C80.1692 38.2724 78.0313 37.0114 76.082 37.3581Z" fill="white"/>
</mask>
<g mask="url(#mask11_294_132)">
<path d="M74.3843 43.884L80.0436 37.8941C80.0436 37.8941 83.1562 41.3935 80.7352 43.7264C78.3143 46.0593 74.3843 43.884 74.3843 43.884Z" fill="#FBCC1C"/>
</g>
<path d="M75.5474 44.546L76.1447 44.7982" stroke="#FFFCFF"  strokeWidth="1.775" stroke-miterlimit="10" stroke-linecap="round" stroke-linejoin="round"/>
<path d="M77.2139 36.6646C77.2139 36.6646 78.1885 36.6015 79.0689 37.3266" stroke="#FFFCFF"  strokeWidth="1.775" stroke-miterlimit="10" stroke-linecap="round" stroke-linejoin="round"/>
<path d="M49.2319 48.0769C46.245 48.6759 43.3211 46.7528 42.7237 43.7579C42.1263 40.7629 44.0442 37.831 47.0311 37.232C50.0179 36.633 52.9419 38.5561 53.5392 41.5511C54.168 44.546 52.2187 47.4779 49.2319 48.0769Z" fill="#EB8E1C"/>
<path d="M49.5776 47.604C46.5907 48.203 43.6668 46.28 43.0694 43.285C42.472 40.29 44.3899 37.3581 47.3768 36.7591C50.3636 36.1602 53.2876 38.0832 53.8849 41.0782C54.4823 44.0416 52.5644 46.9735 49.5776 47.604Z" fill="#FDBB00"/>
<path d="M47.66 38.1463C45.4592 38.5876 44.0443 40.7629 44.4845 42.9697C44.9247 45.1765 47.0941 46.5952 49.2949 46.1538C51.4957 45.7125 52.9106 43.5372 52.4704 41.3304C51.9988 39.1551 49.8608 37.7049 47.66 38.1463Z" fill="#FFD85C"/>
<mask id="mask12_294_132" style="mask-type:luminance" maskUnits="userSpaceOnUse" x="44" y="38" width="9" height="9">
<path d="M47.66 38.1463C45.4592 38.5876 44.0443 40.7629 44.4845 42.9697C44.9247 45.1765 47.0941 46.5952 49.2949 46.1538C51.4957 45.7125 52.9106 43.5372 52.4704 41.3304C51.9988 39.1551 49.8608 37.7049 47.66 38.1463Z" fill="white"/>
</mask>
<g mask="url(#mask12_294_132)">
<path d="M45.019 45.6179L51.936 38.7138C51.936 38.7138 54.8914 42.6545 51.9674 45.3657C49.0434 48.0454 45.019 45.6179 45.019 45.6179Z" fill="#FBCC1C"/>
</g>
<path d="M46.2134 46.3745L46.8422 46.6267" stroke="#FFFCFF"  strokeWidth="1.9774" stroke-miterlimit="10" stroke-linecap="round" stroke-linejoin="round"/>
<path d="M48.9805 37.3581C48.9805 37.3581 50.0494 37.2636 50.9298 38.1148" stroke="#FFFCFF"  strokeWidth="1.9774" stroke-miterlimit="10" stroke-linecap="round" stroke-linejoin="round"/>
<path d="M69.448 63.2409C67.1843 65.5423 63.4743 65.5738 61.1792 63.3039C58.884 61.0341 58.8526 57.314 61.1163 55.0126C63.38 52.7112 67.09 52.6797 69.3852 54.9496C71.6803 57.2194 71.7117 60.9395 69.448 63.2409Z" fill="#FDBB00"/>
<path d="M62.2167 56.116C60.5503 57.8184 60.5818 60.5612 62.2796 62.232C63.9774 63.9029 66.7127 63.8714 68.379 62.169C70.0454 60.4666 70.0139 57.7238 68.3161 56.053C66.5869 54.3821 63.883 54.4136 62.2167 56.116Z" fill="#FFD85C"/>
<mask id="mask13_294_132" style="mask-type:luminance" maskUnits="userSpaceOnUse" x="60" y="54" width="10" height="10">
<path d="M62.2167 56.116C60.5503 57.8184 60.5818 60.5612 62.2796 62.232C63.9774 63.9029 66.7127 63.8714 68.379 62.169C70.0454 60.4666 70.0139 57.7238 68.3161 56.053C66.5869 54.3821 63.883 54.4136 62.2167 56.116Z" fill="white"/>
</mask>
<g mask="url(#mask13_294_132)">
<path d="M64.2603 64.1866L66.241 54.0353C66.241 54.0353 71.1772 55.7377 70.2025 59.8361C69.2279 63.966 64.2603 64.1866 64.2603 64.1866Z" fill="#FBCC1C"/>
</g>
<path d="M65.7695 64.1551L66.4612 64.029" stroke="#FFFCFF"  strokeWidth="2.091" stroke-miterlimit="10" stroke-linecap="round" stroke-linejoin="round"/>
<path d="M62.877 54.6028C62.877 54.6028 63.7573 53.9092 65.0149 54.0984" stroke="#FFFCFF"  strokeWidth="2.091" stroke-miterlimit="10" stroke-linecap="round" stroke-linejoin="round"/>
<path d="M52.5332 20.8386L53.1621 22.4779L54.797 23.1085L53.1621 23.739L52.5332 25.3783L51.9359 23.739L50.2695 23.1085L51.9359 22.4779L52.5332 20.8386Z" fill="#FFFFFA"/>
<path d="M5.18364 32.5347L5.78101 34.174L7.41591 34.773L5.78101 35.4035L5.18364 37.0429L4.55483 35.4035L2.91992 34.773L4.55483 34.174L5.18364 32.5347Z" fill="#FFFFFA"/>
<path d="M93.1541 42.8121L93.783 44.4514L95.4179 45.082L93.783 45.681L93.1541 47.3203L92.5568 45.681L90.9219 45.082L92.5568 44.4514L93.1541 42.8121Z" fill="#FFFFFA"/>
<path d="M39.8311 0L40.4285 1.63934L42.0634 2.26986L40.4285 2.86885L39.8311 4.5082L39.2023 2.86885L37.5674 2.26986L39.2023 1.63934L39.8311 0Z" fill="#FFFFFA"/>
<path d="M66.6186 8.35435C66.0841 7.91299 65.9897 7.12484 66.3985 6.5889C66.8386 6.05296 67.6247 5.95839 68.1591 6.36822C68.6936 6.80959 68.788 7.59773 68.3792 8.13367C67.9391 8.70114 67.153 8.79571 66.6186 8.35435Z" stroke="#FFFFFA"  strokeWidth="2.2722" stroke-miterlimit="10"/>
<path d="M84.2562 49.7478C84.2562 50.3153 83.7846 50.7881 83.2187 50.7881C82.6528 50.7881 82.1812 50.3153 82.1812 49.7478C82.1812 49.1803 82.6528 48.7074 83.2187 48.7074C83.8161 48.6759 84.2562 49.1488 84.2562 49.7478Z" fill="#FFFFFA"/>
<path d="M13.7983 49.2434C14.3713 49.2434 14.8358 48.7776 14.8358 48.203C14.8358 47.6285 14.3713 47.1627 13.7983 47.1627C13.2253 47.1627 12.7607 47.6285 12.7607 48.203C12.7607 48.7776 13.2253 49.2434 13.7983 49.2434Z" stroke="#FFFFFA"  strokeWidth="2.2722" stroke-miterlimit="10"/>
<path d="M60.9904 41.6457C61.3991 41.6457 61.745 41.9924 61.745 42.4023C61.745 42.8121 61.3991 43.1589 60.9904 43.1589C60.5817 43.1589 60.2358 42.8121 60.2358 42.4023C60.2358 41.9924 60.5817 41.6457 60.9904 41.6457Z" fill="#FFFFFA"/>
<path d="M1.41092 79.319C3.29735 77.9319 6.37851 77.9004 8.26494 79.2245C10.1514 80.5486 10.1828 82.7554 8.29638 84.111C6.40995 85.4981 3.32879 85.5296 1.44236 84.2056C-0.475513 82.8815 -0.475513 80.7062 1.41092 79.319Z" fill="#EB8E1C"/>
<path d="M1.41092 78.5309C3.29735 77.2699 6.37851 77.2068 8.26494 78.4678C10.1514 79.6974 10.1828 81.7465 8.29638 83.0076C6.40995 84.2686 3.32879 84.3317 1.44236 83.0706C-0.475513 81.8726 -0.475513 79.8235 1.41092 78.5309Z" fill="#FDBB00"/>
<path d="M2.3227 79.1299C0.93932 80.0757 0.93932 81.5889 2.35414 82.4716C3.73752 83.3859 6.03268 83.3544 7.41606 82.4086C8.79944 81.4628 8.79944 79.9496 7.38462 79.0668C5.9698 78.1526 3.70608 78.1841 2.3227 79.1299Z" fill="#FFD85C"/>
<mask id="mask14_294_132" style="mask-type:luminance" maskUnits="userSpaceOnUse" x="1" y="78" width="8" height="6">
<path d="M2.3227 79.1299C0.93932 80.0757 0.93932 81.5889 2.35414 82.4716C3.73752 83.3859 6.03268 83.3544 7.41606 82.4086C8.79944 81.4628 8.79944 79.9496 7.38462 79.0668C5.9698 78.1526 3.70608 78.1841 2.3227 79.1299Z" fill="white"/>
</mask>
<g mask="url(#mask14_294_132)">
<path d="M5.7181 83.5435L3.95743 77.995C3.95743 77.995 -0.129831 79.0038 0.719062 81.2421C1.5994 83.4805 5.7181 83.5435 5.7181 83.5435Z" fill="#FBCC1C"/>
</g>
<path d="M4.4919 83.5435L3.89453 83.4805" stroke="#FFFCFF"  strokeWidth="1.4124" stroke-miterlimit="10" stroke-linecap="round" stroke-linejoin="round"/>
<path d="M6.78703 78.2787C6.78703 78.2787 6.0639 77.9004 5.02637 78.0265" stroke="#FFFCFF"  strokeWidth="1.4124" stroke-miterlimit="10" stroke-linecap="round" stroke-linejoin="round"/>
<path d="M93.5632 99.8108C90.2305 100.536 86.6463 99.1803 85.5458 96.8474C84.4454 94.483 86.269 91.9609 89.6017 91.2673C92.9343 90.5422 96.5186 91.8978 97.619 94.2308C98.7194 96.5637 96.8959 99.0857 93.5632 99.8108Z" fill="#EB8E1C"/>
<path d="M85.2314 95.744L85.2943 92.9382L97.9963 93.3796L97.902 96.1223L91.551 99.338L85.2314 95.744Z" fill="#EB8E1C"/>
<path d="M93.6261 97.6356C90.2935 98.3607 86.7092 97.005 85.6088 94.6721C84.5084 92.3077 86.332 89.7856 89.6647 89.0921C92.9973 88.367 96.5816 89.7226 97.682 92.0555C98.751 94.3884 96.9588 96.9105 93.6261 97.6356Z" fill="#FDBB00"/>
<path d="M90.4191 90.0694C87.9353 90.4161 86.4261 92.0555 87.0864 93.7579C87.7152 95.4603 90.2618 96.5637 92.7456 96.2169C95.2294 95.8701 96.7386 94.2308 96.0783 92.5284C95.4495 90.8575 92.9029 89.7541 90.4191 90.0694Z" fill="#FFD85C"/>
<mask id="mask15_294_132" style="mask-type:luminance" maskUnits="userSpaceOnUse" x="86" y="90" width="11" height="7">
<path d="M90.4191 90.0694C87.9353 90.4161 86.4261 92.0555 87.0864 93.7579C87.7152 95.4603 90.2618 96.5637 92.7456 96.2169C95.2294 95.8701 96.7386 94.2308 96.0783 92.5284C95.4495 90.8575 92.9029 89.7541 90.4191 90.0694Z" fill="white"/>
</mask>
<g mask="url(#mask15_294_132)">
<path d="M87.8408 95.7755L95.3237 90.4792C95.3237 90.4792 98.9393 93.5372 95.7638 95.5864C92.5883 97.6356 87.8408 95.7755 87.8408 95.7755Z" fill="#FBCC1C"/>
</g>
<path d="M89.6333 96.9105L90.3564 97.0681" stroke="#FFFCFF"  strokeWidth="1.9062" stroke-miterlimit="10" stroke-linecap="round" stroke-linejoin="round"/>
<path d="M91.5825 89.4388C91.5825 89.4388 92.7773 89.2812 93.8777 89.8802" stroke="#FFFCFF"  strokeWidth="1.9062" stroke-miterlimit="10" stroke-linecap="round" stroke-linejoin="round"/>
<path d="M79.1316 63.5246H18.4829V89.1866H79.1316V63.5246Z" fill="#480101"/>
<path d="M21.0611 66.425L25.054 92.0555H20.1808C19.1747 92.0555 18.3258 91.3304 18.1686 90.3531L13.7983 66.3934H21.0611V66.425Z" fill="#A02F05"/>
<path d="M78.5969 66.425L74.604 92.0555H79.4773C80.4834 92.0555 81.3323 91.3304 81.4895 90.3531L85.8597 66.3934H78.5969V66.425Z" fill="#A02F05"/>
<path d="M78.2511 86.9798H20.5264V92.087H78.2511V86.9798Z" fill="#A02F05"/>
<path d="M85.8285 66.425H13.7983V62.3897C13.7983 61.7907 14.2699 61.3178 14.8673 61.3178H84.6966C85.3254 61.3178 85.8285 61.8222 85.8285 62.4527V66.425Z" fill="#A02F05"/>
<path d="M79.1319 88.9975C79.1319 89.691 78.566 90.2585 77.8743 90.2585C77.1826 90.2585 76.6167 89.691 76.6167 88.9975C76.6167 88.3039 77.1826 87.7364 77.8743 87.7364C78.566 87.7364 79.1319 88.3039 79.1319 88.9975Z" fill="#881A03"/>
<path d="M80.9869 80.4855C80.9869 81.1791 80.421 81.7465 79.7293 81.7465C79.0376 81.7465 78.4717 81.1791 78.4717 80.4855C78.4717 79.7919 79.0376 79.2245 79.7293 79.2245C80.421 79.256 80.9869 79.7919 80.9869 80.4855Z" fill="#881A03"/>
<path d="M82.2447 71.9735C82.2447 72.6671 81.6788 73.2345 80.9871 73.2345C80.2954 73.2345 79.7295 72.6671 79.7295 71.9735C79.7295 71.2799 80.2954 70.7125 80.9871 70.7125C81.7102 70.744 82.2447 71.3115 82.2447 71.9735Z" fill="#881A03"/>
<path d="M83.2193 64.0605C83.2193 64.7541 82.6534 65.3216 81.9617 65.3216C81.27 65.3216 80.7041 64.7541 80.7041 64.0605C80.7041 63.3669 81.27 62.7995 81.9617 62.7995C82.6534 62.7995 83.2193 63.3669 83.2193 64.0605Z" fill="#881A03"/>
<path d="M20.1494 88.9975C20.1494 89.691 20.7153 90.2585 21.407 90.2585C22.0987 90.2585 22.6647 89.691 22.6647 88.9975C22.6647 88.3039 22.0987 87.7364 21.407 87.7364C20.6839 87.7364 20.1494 88.3039 20.1494 88.9975Z" fill="#881A03"/>
<path d="M31.248 88.9975C31.248 89.691 31.814 90.2585 32.5057 90.2585C33.1974 90.2585 33.7633 89.691 33.7633 88.9975C33.7633 88.3039 33.1974 87.7364 32.5057 87.7364C31.814 87.7364 31.248 88.3039 31.248 88.9975Z" fill="#881A03"/>
<path d="M42.3779 88.9975C42.3779 89.691 42.9439 90.2585 43.6355 90.2585C44.3272 90.2585 44.8932 89.691 44.8932 88.9975C44.8932 88.3039 44.3272 87.7364 43.6355 87.7364C42.9439 87.7364 42.3779 88.3039 42.3779 88.9975Z" fill="#881A03"/>
<path d="M53.5078 88.9975C53.5078 89.691 54.0737 90.2585 54.7654 90.2585C55.4571 90.2585 56.0231 89.691 56.0231 88.9975C56.0231 88.3039 55.4571 87.7364 54.7654 87.7364C54.0737 87.7364 53.5078 88.3039 53.5078 88.9975Z" fill="#881A03"/>
<path d="M64.6377 88.9975C64.6377 89.691 65.2036 90.2585 65.8953 90.2585C66.587 90.2585 67.1529 89.691 67.1529 88.9975C67.1529 88.3039 66.587 87.7364 65.8953 87.7364C65.1722 87.7364 64.6377 88.3039 64.6377 88.9975Z" fill="#881A03"/>
<path d="M26.0288 63.8714C26.0288 64.5649 26.5947 65.1324 27.2864 65.1324C27.9781 65.1324 28.544 64.5649 28.544 63.8714C28.544 63.1778 27.9781 62.6103 27.2864 62.6103C26.5633 62.6103 26.0288 63.1778 26.0288 63.8714Z" fill="#881A03"/>
<path d="M38.3851 65.1324C39.0796 65.1324 39.6427 64.5678 39.6427 63.8714C39.6427 63.1749 39.0796 62.6103 38.3851 62.6103C37.6905 62.6103 37.1274 63.1749 37.1274 63.8714C37.1274 64.5678 37.6905 65.1324 38.3851 65.1324Z" fill="#881A03"/>
<path d="M60.6448 65.1324C61.3394 65.1324 61.9024 64.5678 61.9024 63.8714C61.9024 63.1749 61.3394 62.6103 60.6448 62.6103C59.9503 62.6103 59.3872 63.1749 59.3872 63.8714C59.3872 64.5678 59.9503 65.1324 60.6448 65.1324Z" fill="#881A03"/>
<path d="M70.6431 63.8714C70.6431 64.5649 71.209 65.1324 71.9007 65.1324C72.5924 65.1324 73.1583 64.5649 73.1583 63.8714C73.1583 63.1778 72.5924 62.6103 71.9007 62.6103C71.1776 62.6103 70.6431 63.1778 70.6431 63.8714Z" fill="#881A03"/>
<path d="M18.2944 80.4855C18.2944 81.1791 18.8604 81.7465 19.5521 81.7465C20.2437 81.7465 20.8097 81.1791 20.8097 80.4855C20.8097 79.7919 20.2437 79.2245 19.5521 79.2245C18.8289 79.256 18.2944 79.7919 18.2944 80.4855Z" fill="#881A03"/>
<path d="M17.0054 71.9735C17.0054 72.6671 17.5713 73.2345 18.263 73.2345C18.9547 73.2345 19.5206 72.6671 19.5206 71.9735C19.5206 71.2799 18.9547 70.7125 18.263 70.7125C17.5713 70.7125 17.0054 71.3115 17.0054 71.9735Z" fill="#881A03"/>
<path d="M16.0308 64.0605C16.0308 64.7541 16.5967 65.3216 17.2884 65.3216C17.9801 65.3216 18.546 64.7541 18.546 64.0605C18.546 63.3669 17.9801 62.7995 17.2884 62.7995C16.5967 62.7995 16.0308 63.3669 16.0308 64.0605Z" fill="#881A03"/>
<path d="M53.4132 60.9395H45.1129C43.8868 60.9395 42.9121 61.9168 42.9121 63.1463V67.7175C42.9121 68.947 43.8868 69.9243 45.1129 69.9243H53.4132C54.6394 69.9243 55.6141 68.947 55.6141 67.7175V63.1463C55.5826 61.9168 54.608 60.9395 53.4132 60.9395Z" fill="#6B1A08"/>
<path d="M53.4132 60.2774H45.1129C43.8868 60.2774 42.9121 61.2547 42.9121 62.4842V67.0555C42.9121 68.285 43.8868 69.2623 45.1129 69.2623H53.4132C54.6394 69.2623 55.6141 68.285 55.6141 67.0555V62.4842C55.5826 61.2547 54.608 60.2774 53.4132 60.2774Z" fill="#CE4602"/>
<path d="M50.6149 63.2409C50.6149 63.9975 49.9861 64.628 49.2315 64.628C48.477 64.628 47.8481 63.9975 47.8481 63.2409C47.8481 62.4842 48.477 61.8537 49.2315 61.8537C50.0175 61.8537 50.6149 62.4527 50.6149 63.2409Z" fill="#2B0101"/>
<path d="M49.2314 63.2409L48.0366 67.087H50.6147L49.2314 63.2409Z" fill="#2B0101"/>
<path d="M23.1045 77.396H76.8677" stroke="#2B0101"  strokeWidth="3.4176" stroke-miterlimit="10"/>
</svg>
