<svg width="12" height="14" viewBox="0 0 12 14" fill="none" xmlns="http://www.w3.org/2000/svg">
<g clip-path="url(#clip0_59_12)">
<path d="M1.41823 4.13532C1.27224 3.99344 1.13877 3.86408 0.967758 3.69717C0.930219 3.74724 0.896851 3.81401 0.842628 3.86408C0.642419 4.05186 0.346277 4.04769 0.154411 3.85991C-0.0416266 3.66796 -0.0541397 3.35917 0.141898 3.15887C0.471408 2.82086 0.80926 2.48286 1.14711 2.1532C1.35566 1.94873 1.66432 1.95291 1.86035 2.1532C2.05639 2.3535 2.05222 2.65395 1.84784 2.86677C1.8103 2.90849 1.76442 2.94605 1.70603 3.0003C1.77693 3.07541 1.84784 3.14218 1.91458 3.20894C1.98131 3.27988 2.04805 3.35499 2.11896 3.43428C3.10749 2.60805 4.22532 2.14486 5.48913 2.02385C5.48913 1.69002 5.48913 1.35618 5.48913 1.00149C5.34732 1.00149 5.19716 1.00149 5.05118 1.00149C4.72584 1.00149 4.49643 0.788674 4.5006 0.492399C4.50478 0.204471 4.73001 0 5.05118 0C5.68517 0 6.32334 0 6.95733 0C7.27433 0 7.49956 0.212817 7.49956 0.500745C7.49956 0.788674 7.27433 0.997317 6.95733 0.997317C6.81135 0.997317 6.66953 0.997317 6.51103 0.997317C6.51103 1.34367 6.51103 1.6775 6.51103 2.01133C9.30144 2.23249 11.6289 4.43159 11.9625 7.29419C12.267 9.94814 10.8322 12.431 8.40467 13.4993C6.01885 14.5466 3.20759 13.9165 1.49331 11.9428C0.525631 10.8286 0.0251095 9.51833 0.0167675 8.04531C8.34521e-05 6.57645 0.483921 5.27034 1.41823 4.13532ZM5.98548 12.9985C8.76338 12.9985 10.999 10.7618 10.999 7.98689C10.999 5.24948 8.75921 3.00447 6.02719 3.0003C3.2493 2.99613 1.0053 5.22444 1.0053 7.98689C1.00113 10.7452 3.23679 12.9943 5.98548 12.9985Z" fill="#FFF6D9"/>
<path d="M5.50173 6.60985C5.50173 6.25098 5.50173 5.89211 5.50173 5.53325C5.50173 5.22445 5.71028 5.00329 5.99808 5.00329C6.28588 4.99912 6.50277 5.22445 6.50277 5.54159C6.50277 6.13831 6.50694 6.73921 6.4986 7.33593C6.4986 7.45694 6.53614 7.53623 6.6279 7.61551C7.19099 8.10791 7.7499 8.60866 8.30882 9.10523C8.43812 9.2179 8.51737 9.35143 8.5132 9.52252C8.50486 9.72699 8.40892 9.88138 8.22123 9.96484C8.02102 10.0525 7.83332 10.0191 7.67066 9.87304C7.12842 9.39316 6.58619 8.91328 6.04396 8.4334C5.92717 8.32907 5.81038 8.22475 5.6936 8.1246C5.56012 8.00776 5.49756 7.86588 5.49756 7.68645C5.50173 7.32758 5.50173 6.96872 5.50173 6.60985Z" fill="#FFF6D9"/>
</g>
<defs>
<clipPath id="clip0_59_12">
<rect width="12" height="14" fill="white"/>
</clipPath>
</defs>
</svg>
