<svg width="36" height="36" viewBox="0 0 36 36" fill="none" xmlns="http://www.w3.org/2000/svg">
<g filter="url(#filter0_i_139_312)">
<path d="M27 2.41154C24.9529 1.22965 22.693 0.462529 20.3495 0.153992C18.0059 -0.154545 15.6245 0.00154056 13.3413 0.613336C11.058 1.22513 8.91762 2.28065 7.04229 3.71964C5.16697 5.15863 3.59344 6.9529 2.41154 9C1.22964 11.0471 0.462529 13.307 0.153992 15.6505C-0.154545 17.9941 0.00154066 20.3755 0.613336 22.6587C1.22513 24.942 2.28065 27.0824 3.71964 28.9577C5.15863 30.833 6.9529 32.4066 9 33.5885L18 18L27 2.41154Z" fill="url(#paint0_linear_139_312)"/>
</g>
<g filter="url(#filter1_i_139_312)">
<path d="M9 33.5885C11.0471 34.7704 13.307 35.5375 15.6505 35.846C17.9941 36.1545 20.3755 35.9985 22.6587 35.3867C24.942 34.7749 27.0824 33.7193 28.9577 32.2804C30.833 30.8414 32.4066 29.0471 33.5885 27C34.7704 24.9529 35.5375 22.693 35.846 20.3495C36.1545 18.0059 35.9985 15.6245 35.3867 13.3413C34.7749 11.058 33.7193 8.91762 32.2804 7.04229C30.8414 5.16697 29.0471 3.59344 27 2.41154L18 18L9 33.5885Z" fill="#5FBF32"/>
</g>
<g filter="url(#filter2_d_139_312)">
<path d="M7.09222 11.456C8.00422 11.456 8.70822 11.7 9.20422 12.188C9.70022 12.676 9.94822 13.348 9.94822 14.204C9.94822 14.788 9.81622 15.3 9.55222 15.74C9.28822 16.18 8.91622 16.52 8.43622 16.76C7.95622 17 7.40022 17.12 6.76822 17.12C6.23222 17.12 5.74822 17.04 5.31622 16.88C4.89222 16.712 4.55622 16.484 4.30822 16.196C4.06822 15.908 3.94822 15.584 3.94822 15.224C3.94822 14.904 4.04422 14.644 4.23622 14.444C4.42822 14.236 4.67622 14.132 4.98022 14.132C5.28422 14.132 5.52822 14.22 5.71222 14.396C5.89622 14.564 5.98822 14.784 5.98822 15.056C5.98822 15.216 5.96022 15.356 5.90422 15.476C6.08822 15.636 6.37622 15.716 6.76822 15.716C7.21622 15.716 7.57222 15.588 7.83622 15.332C8.10022 15.068 8.23222 14.712 8.23222 14.264C8.23222 13.816 8.09622 13.472 7.82422 13.232C7.55222 12.984 7.17222 12.86 6.68422 12.86C6.43622 12.86 6.22422 12.888 6.04822 12.944C5.87222 13 5.68022 13.08 5.47222 13.184C5.23222 13.304 5.04022 13.364 4.89622 13.364C4.69622 13.364 4.54822 13.328 4.45222 13.256C4.36422 13.176 4.32022 13.052 4.32022 12.884C4.32022 12.644 4.38822 11.46 4.52422 9.332C4.53222 9.092 4.60022 8.912 4.72822 8.792C4.86422 8.664 5.04822 8.6 5.28022 8.6H9.08422C9.26022 8.6 9.40422 8.656 9.51622 8.768C9.63622 8.88 9.69622 9.02 9.69622 9.188V9.428C9.69622 9.596 9.63622 9.736 9.51622 9.848C9.40422 9.96 9.26022 10.016 9.08422 10.016L6.10822 9.992L6.02422 11.648C6.31222 11.52 6.66822 11.456 7.09222 11.456ZM14.6227 17.12C13.9187 17.12 13.3107 16.948 12.7987 16.604C12.2867 16.26 11.8947 15.772 11.6227 15.14C11.3507 14.508 11.2147 13.764 11.2147 12.908C11.2147 11.996 11.3467 11.208 11.6107 10.544C11.8827 9.88 12.2747 9.372 12.7867 9.02C13.2987 8.66 13.9107 8.48 14.6227 8.48C15.3267 8.48 15.9307 8.652 16.4347 8.996C16.9467 9.34 17.3387 9.828 17.6107 10.46C17.8827 11.092 18.0187 11.836 18.0187 12.692C18.0187 13.604 17.8827 14.392 17.6107 15.056C17.3467 15.72 16.9587 16.232 16.4467 16.592C15.9427 16.944 15.3347 17.12 14.6227 17.12ZM14.6227 15.716C15.1987 15.716 15.6227 15.468 15.8947 14.972C16.1667 14.476 16.3027 13.72 16.3027 12.704C16.3027 10.824 15.7427 9.884 14.6227 9.884C14.0387 9.884 13.6107 10.132 13.3387 10.628C13.0747 11.116 12.9427 11.868 12.9427 12.884C12.9427 13.828 13.0787 14.536 13.3507 15.008C13.6307 15.48 14.0547 15.716 14.6227 15.716Z" fill="white"/>
</g>
<g filter="url(#filter3_d_139_312)">
<path d="M21.0922 22.456C22.0042 22.456 22.7082 22.7 23.2042 23.188C23.7002 23.676 23.9482 24.348 23.9482 25.204C23.9482 25.788 23.8162 26.3 23.5522 26.74C23.2882 27.18 22.9162 27.52 22.4362 27.76C21.9562 28 21.4002 28.12 20.7682 28.12C20.2322 28.12 19.7482 28.04 19.3162 27.88C18.8922 27.712 18.5562 27.484 18.3082 27.196C18.0682 26.908 17.9482 26.584 17.9482 26.224C17.9482 25.904 18.0442 25.644 18.2362 25.444C18.4282 25.236 18.6762 25.132 18.9802 25.132C19.2842 25.132 19.5282 25.22 19.7122 25.396C19.8962 25.564 19.9882 25.784 19.9882 26.056C19.9882 26.216 19.9602 26.356 19.9042 26.476C20.0882 26.636 20.3762 26.716 20.7682 26.716C21.2162 26.716 21.5722 26.588 21.8362 26.332C22.1002 26.068 22.2322 25.712 22.2322 25.264C22.2322 24.816 22.0962 24.472 21.8242 24.232C21.5522 23.984 21.1722 23.86 20.6842 23.86C20.4362 23.86 20.2242 23.888 20.0482 23.944C19.8722 24 19.6802 24.08 19.4722 24.184C19.2322 24.304 19.0402 24.364 18.8962 24.364C18.6962 24.364 18.5482 24.328 18.4522 24.256C18.3642 24.176 18.3202 24.052 18.3202 23.884C18.3202 23.644 18.3882 22.46 18.5242 20.332C18.5322 20.092 18.6002 19.912 18.7282 19.792C18.8642 19.664 19.0482 19.6 19.2802 19.6H23.0842C23.2602 19.6 23.4042 19.656 23.5162 19.768C23.6362 19.88 23.6962 20.02 23.6962 20.188V20.428C23.6962 20.596 23.6362 20.736 23.5162 20.848C23.4042 20.96 23.2602 21.016 23.0842 21.016L20.1082 20.992L20.0242 22.648C20.3122 22.52 20.6682 22.456 21.0922 22.456ZM28.6227 28.12C27.9187 28.12 27.3107 27.948 26.7987 27.604C26.2867 27.26 25.8947 26.772 25.6227 26.14C25.3507 25.508 25.2147 24.764 25.2147 23.908C25.2147 22.996 25.3467 22.208 25.6107 21.544C25.8827 20.88 26.2747 20.372 26.7867 20.02C27.2987 19.66 27.9107 19.48 28.6227 19.48C29.3267 19.48 29.9307 19.652 30.4347 19.996C30.9467 20.34 31.3387 20.828 31.6107 21.46C31.8827 22.092 32.0187 22.836 32.0187 23.692C32.0187 24.604 31.8827 25.392 31.6107 26.056C31.3467 26.72 30.9587 27.232 30.4467 27.592C29.9427 27.944 29.3347 28.12 28.6227 28.12ZM28.6227 26.716C29.1987 26.716 29.6227 26.468 29.8947 25.972C30.1667 25.476 30.3027 24.72 30.3027 23.704C30.3027 21.824 29.7427 20.884 28.6227 20.884C28.0387 20.884 27.6107 21.132 27.3387 21.628C27.0747 22.116 26.9427 22.868 26.9427 23.884C26.9427 24.828 27.0787 25.536 27.3507 26.008C27.6307 26.48 28.0547 26.716 28.6227 26.716Z" fill="white"/>
</g>
<defs>
<filter id="filter0_i_139_312" x="0" y="0" width="27" height="35.5884" filterUnits="userSpaceOnUse" color-interpolation-filters="sRGB">
<feFlood flood-opacity="0" result="BackgroundImageFix"/>
<feBlend mode="normal" in="SourceGraphic" in2="BackgroundImageFix" result="shape"/>
<feColorMatrix in="SourceAlpha" type="matrix" values="0 0 0 0 0 0 0 0 0 0 0 0 0 0 0 0 0 0 127 0" result="hardAlpha"/>
<feOffset dy="2"/>
<feGaussianBlur stdDeviation="2"/>
<feComposite in2="hardAlpha" operator="arithmetic" k2="-1" k3="1"/>
<feColorMatrix type="matrix" values="0 0 0 0 1 0 0 0 0 1 0 0 0 0 1 0 0 0 0.25 0"/>
<feBlend mode="normal" in2="shape" result="effect1_innerShadow_139_312"/>
</filter>
<filter id="filter1_i_139_312" x="9" y="2.41156" width="27" height="35.5884" filterUnits="userSpaceOnUse" color-interpolation-filters="sRGB">
<feFlood flood-opacity="0" result="BackgroundImageFix"/>
<feBlend mode="normal" in="SourceGraphic" in2="BackgroundImageFix" result="shape"/>
<feColorMatrix in="SourceAlpha" type="matrix" values="0 0 0 0 0 0 0 0 0 0 0 0 0 0 0 0 0 0 127 0" result="hardAlpha"/>
<feOffset dy="2"/>
<feGaussianBlur stdDeviation="2"/>
<feComposite in2="hardAlpha" operator="arithmetic" k2="-1" k3="1"/>
<feColorMatrix type="matrix" values="0 0 0 0 1 0 0 0 0 1 0 0 0 0 1 0 0 0 0.25 0"/>
<feBlend mode="normal" in2="shape" result="effect1_innerShadow_139_312"/>
</filter>
<filter id="filter2_d_139_312" x="3.94824" y="8.47998" width="14.0703" height="9.64001" filterUnits="userSpaceOnUse" color-interpolation-filters="sRGB">
<feFlood flood-opacity="0" result="BackgroundImageFix"/>
<feColorMatrix in="SourceAlpha" type="matrix" values="0 0 0 0 0 0 0 0 0 0 0 0 0 0 0 0 0 0 127 0" result="hardAlpha"/>
<feOffset dy="1"/>
<feComposite in2="hardAlpha" operator="out"/>
<feColorMatrix type="matrix" values="0 0 0 0 0 0 0 0 0 0 0 0 0 0 0 0 0 0 0.25 0"/>
<feBlend mode="normal" in2="BackgroundImageFix" result="effect1_dropShadow_139_312"/>
<feBlend mode="normal" in="SourceGraphic" in2="effect1_dropShadow_139_312" result="shape"/>
</filter>
<filter id="filter3_d_139_312" x="17.9482" y="19.48" width="14.0703" height="9.64001" filterUnits="userSpaceOnUse" color-interpolation-filters="sRGB">
<feFlood flood-opacity="0" result="BackgroundImageFix"/>
<feColorMatrix in="SourceAlpha" type="matrix" values="0 0 0 0 0 0 0 0 0 0 0 0 0 0 0 0 0 0 127 0" result="hardAlpha"/>
<feOffset dy="1"/>
<feComposite in2="hardAlpha" operator="out"/>
<feColorMatrix type="matrix" values="0 0 0 0 0 0 0 0 0 0 0 0 0 0 0 0 0 0 0.25 0"/>
<feBlend mode="normal" in2="BackgroundImageFix" result="effect1_dropShadow_139_312"/>
<feBlend mode="normal" in="SourceGraphic" in2="effect1_dropShadow_139_312" result="shape"/>
</filter>
<linearGradient id="paint0_linear_139_312" x1="18" y1="18" x2="2.52" y2="9" gradientUnits="userSpaceOnUse">
<stop stop-color="#FF5C71"/>
<stop offset="1" stop-color="#ED4762"/>
</linearGradient>
</defs>
</svg>
