<svg width="34" height="36" viewBox="0 0 34 36" fill="none" xmlns="http://www.w3.org/2000/svg">
<path d="M15.2869 36C14.7888 35.8403 14.2626 35.8309 13.7458 35.7369C10.8891 35.2107 8.33314 34.0266 6.09668 32.1755C3.08027 29.6665 1.12571 26.4903 0.36456 22.647C-0.659703 17.4975 0.477323 12.8272 3.73805 8.72077C6.29401 5.50703 9.65811 3.57126 13.68 2.76313C14.2908 2.64097 14.2908 2.65037 14.2908 2.01138C14.2908 1.54153 14.2908 1.07168 14.2908 0.601839C14.2908 0.35752 14.366 0.169582 14.5915 0.0568186C14.8264 -0.0559443 15.0237 0.00983407 15.2023 0.160185C16.6682 1.39118 18.1341 2.62218 19.5906 3.85317C19.9853 4.18206 19.9665 4.52035 19.5718 4.85864C18.1435 6.06144 16.7152 7.25485 15.2963 8.45766C15.0895 8.6362 14.8734 8.75836 14.5915 8.6362C14.3096 8.51404 14.272 8.26032 14.2814 7.98781C14.2908 7.57435 14.272 7.17028 14.2908 6.75682C14.3002 6.53129 14.2626 6.44672 13.9995 6.5031C10.2501 7.37701 7.38405 9.46313 5.44829 12.7802C4.09513 15.1013 3.5783 17.629 3.75684 20.3072C4.14212 25.9735 8.49289 30.9163 14.1122 31.9969C18.8859 32.9178 22.9923 31.5835 26.347 28.069C28.311 26.0017 29.448 23.5021 29.7017 20.6548C30.1434 15.8436 28.4331 11.9157 24.665 8.89931C23.9226 8.30731 23.6595 7.49917 23.9602 6.69104C24.2515 5.92049 24.9939 5.44125 25.8396 5.48823C26.2437 5.50703 26.5913 5.66677 26.9014 5.91109C30.1622 8.42947 32.3235 11.6808 33.1316 15.7121C34.3626 21.914 32.6523 27.2609 28.0573 31.6116C25.5013 34.0266 22.4097 35.408 18.9141 35.8684C18.6697 35.8966 18.4066 35.859 18.1717 36C17.2132 36 16.2453 36 15.2869 36Z" fill="#009BFF"/>
<path d="M16.0384 25.9453C15.7283 26.2648 15.4276 26.5843 15.1175 26.9038C14.9483 27.0823 14.751 27.2045 14.4973 27.1575C14.253 27.1199 14.0556 26.9884 13.9805 26.7441C13.9053 26.4997 13.9805 26.2836 14.159 26.1051C14.7322 25.5319 15.296 24.9586 15.8786 24.3948C16.0572 24.2163 16.1418 24.0377 16.1418 23.784C16.123 22.7692 16.1324 21.7449 16.1324 20.73C16.1324 20.3448 16.123 20.3354 15.7753 20.5327C14.8544 21.0589 13.9335 21.6039 13.0032 22.1208C12.834 22.2147 12.8059 22.3651 12.7589 22.5248C12.5615 23.2672 12.3642 24.019 12.1669 24.7613C12.1387 24.8647 12.1105 24.968 12.0635 25.062C11.9319 25.3251 11.7158 25.4755 11.4151 25.4191C11.0956 25.3627 10.8983 25.1278 10.9171 24.7989C10.9359 24.329 11.1426 23.8968 11.2366 23.4363C11.2554 23.3612 11.2929 23.286 11.246 23.1544C10.8701 23.3612 10.5036 23.5679 10.1277 23.7746C9.78944 23.9626 9.46055 24.1693 9.13166 24.3666C8.7182 24.611 8.36111 24.5452 8.16378 24.1975C7.96644 23.8592 8.1074 23.5115 8.52086 23.2766C9.22563 22.8819 9.921 22.4779 10.7103 22.0174C10.2123 21.8765 9.78944 21.7637 9.37598 21.6509C9.18804 21.5945 8.98131 21.5758 8.84975 21.3972C8.66181 21.1623 8.63362 20.8992 8.81216 20.6549C8.99071 20.3917 9.26322 20.3354 9.55452 20.4105C10.0713 20.5421 10.6164 20.6361 11.105 20.8428C11.9319 21.1999 12.6085 21.0119 13.3133 20.5233C13.9899 20.0535 14.7416 19.687 15.5216 19.2359C14.9389 18.8976 14.3939 18.5781 13.8583 18.268C13.3885 17.9955 12.9186 17.7324 12.4582 17.4599C12.2984 17.3659 12.1387 17.3565 11.9601 17.4035C11.199 17.6197 10.4284 17.8264 9.65789 18.0237C9.21623 18.1365 8.94372 18.0613 8.78397 17.7888C8.56784 17.4129 8.72759 17.0183 9.16925 16.8773C9.64849 16.7269 10.1277 16.6142 10.7009 16.4544C10.1465 16.1349 9.67668 15.853 9.19744 15.5805C8.94372 15.4302 8.69001 15.2892 8.43629 15.1389C8.06981 14.9039 7.96644 14.5938 8.14498 14.2838C8.32352 13.9643 8.69 13.8703 9.06588 14.077C9.63909 14.3965 10.2029 14.7348 10.7667 15.0637C10.9171 15.1483 11.0768 15.2234 11.2836 15.3362C11.2178 14.8194 11.0392 14.3871 10.9453 13.9361C10.8231 13.3816 11.1238 13.0058 11.6218 13.0716C11.9131 13.1091 12.0635 13.3065 12.1387 13.579C12.3454 14.3589 12.5615 15.1295 12.7589 15.9188C12.8246 16.1819 12.9562 16.3323 13.1911 16.4638C14.065 16.9431 14.9202 17.4505 15.7753 17.9485C15.8786 18.0049 15.982 18.0519 16.0854 18.1083C16.1793 18.0049 16.1418 17.8922 16.1418 17.7982C16.1418 16.7833 16.1324 15.7591 16.1511 14.7442C16.1511 14.4905 16.0854 14.3025 15.8974 14.124C15.343 13.5978 14.8168 13.0528 14.2812 12.5171C14.1496 12.3856 14.0087 12.2446 13.9711 12.0567C13.9241 11.7842 13.9899 11.5305 14.253 11.3989C14.5067 11.2673 14.7792 11.2579 14.9953 11.4835C15.3524 11.8406 15.7001 12.207 16.0384 12.5641C16.1981 12.4889 16.1324 12.3762 16.1418 12.301C16.1511 11.5586 16.1418 10.8257 16.1418 10.0833C16.1418 9.60409 16.4049 9.30339 16.7807 9.32218C17.1566 9.33158 17.3915 9.62288 17.4009 10.0739C17.4009 10.8915 17.4009 11.709 17.4009 12.6299C17.7768 12.254 18.0963 11.9345 18.4158 11.615C18.7447 11.2861 19.1582 11.2298 19.4025 11.4835C19.6844 11.7748 19.6468 12.1413 19.2897 12.5077C18.7259 13.0716 18.1621 13.6354 17.5983 14.1992C17.4949 14.3025 17.4009 14.3871 17.4009 14.5563C17.4103 15.7403 17.4009 16.9243 17.4009 18.1647C17.8614 17.911 18.2749 17.676 18.6883 17.4411C19.2803 17.1028 19.8535 16.7551 20.4549 16.4262C20.6617 16.3135 20.7274 16.1537 20.7744 15.9564C20.9812 15.1671 21.1973 14.3777 21.404 13.5884C21.498 13.2501 21.7047 13.0716 22.0618 13.0903C22.3907 13.1091 22.6068 13.3159 22.6068 13.6448C22.6068 14.1052 22.4001 14.5281 22.3155 14.9791C22.2967 15.0919 22.2122 15.1953 22.2967 15.3456C22.9451 14.9791 23.5935 14.6032 24.2325 14.2368C24.3265 14.1804 24.411 14.124 24.505 14.077C24.8339 13.9267 25.1722 14.0112 25.3413 14.2838C25.5199 14.5845 25.4353 14.9415 25.1158 15.1389C24.4392 15.5523 23.7439 15.947 23.0579 16.3417C23.0109 16.3699 22.9639 16.3981 22.8417 16.4732C23.2834 16.5954 23.6687 16.7082 24.0446 16.8115C24.1949 16.8491 24.3453 16.8867 24.4768 16.9525C24.7399 17.0934 24.8997 17.3096 24.8151 17.6103C24.7305 17.9016 24.5426 18.0989 24.2043 18.0895C23.7157 18.0707 23.274 17.864 22.8136 17.7606C22.5317 17.6948 22.2403 17.6291 21.9678 17.5257C21.5074 17.3377 21.1127 17.4223 20.6899 17.6854C19.8253 18.2305 18.9326 18.7191 18.0117 19.2547C18.6601 19.6306 19.2709 19.9971 19.8911 20.3448C20.267 20.5609 20.6523 20.7582 21.0187 20.9931C21.2161 21.1153 21.404 21.1247 21.6202 21.0683C22.4001 20.8522 23.18 20.6455 23.9506 20.4387C24.2513 20.3542 24.5144 20.3917 24.7023 20.6549C24.8715 20.8804 24.8809 21.1247 24.7117 21.369C24.6084 21.5194 24.458 21.5664 24.3077 21.6227C23.8472 21.7919 23.3586 21.8295 22.8605 22.055C23.6311 22.4967 24.3547 22.9195 25.0876 23.333C25.3413 23.4739 25.4541 23.6995 25.4353 23.972C25.4165 24.2539 25.238 24.4324 24.9561 24.517C24.7399 24.5828 24.5614 24.4794 24.3922 24.3854C23.7814 24.0377 23.18 23.6807 22.5692 23.3236C22.4753 23.2672 22.3719 23.2202 22.1934 23.1356C22.3249 23.6337 22.4471 24.0565 22.5504 24.4888C22.6068 24.7143 22.6538 24.9492 22.5035 25.1654C22.3625 25.3533 22.1652 25.4755 21.9302 25.4473C21.6483 25.4097 21.4698 25.2312 21.3946 24.9586C21.1785 24.1693 20.9624 23.38 20.765 22.5906C20.6993 22.3463 20.5959 22.1866 20.3704 22.0644C19.4683 21.5664 18.5849 21.0495 17.6922 20.5233C17.4573 20.3823 17.3821 20.4199 17.3821 20.7018C17.3915 21.7637 17.3915 22.8349 17.3821 23.8968C17.3821 24.0941 17.4479 24.2257 17.5795 24.3572C18.1527 24.9211 18.7259 25.4943 19.2991 26.0675C19.628 26.3964 19.6562 26.7441 19.3837 27.0166C19.1112 27.2891 18.7635 27.2797 18.4252 26.9508C18.0963 26.6313 17.7956 26.293 17.4761 25.9735C17.3352 26.0675 17.3821 26.1708 17.3821 26.2554C17.3821 26.979 17.3821 27.7119 17.3821 28.4355C17.3821 28.9053 17.119 29.206 16.7338 29.1966C16.3673 29.1873 16.123 28.8959 16.123 28.4449C16.1136 27.6368 16.123 26.838 16.123 26.0299C16.1042 25.9829 16.0666 25.9641 16.0384 25.9453Z" fill="#FBD457"/>
</svg>
