<svg width="28" height="24" viewBox="0 0 28 24" fill="none" xmlns="http://www.w3.org/2000/svg">
<path d="M27.2946 8.4389C27.2039 8.91869 27.14 9.39848 27.0227 9.87293C26.9214 10.2728 26.7668 10.6672 26.6175 11.0511C26.5909 11.1204 26.4683 11.2057 26.3936 11.2057C24.2612 11.2163 22.1288 11.211 19.9965 11.2163C19.7832 11.2163 19.7779 11.0777 19.7352 10.9498C19.0742 8.972 18.4185 6.99421 17.7575 5.01642C17.7308 4.93646 17.6988 4.85649 17.6402 4.69657C16.5686 7.90581 15.5238 11.0404 14.4789 14.175C14.4576 14.175 14.4363 14.175 14.4203 14.1804C14.0897 13.1941 13.7592 12.2079 13.4234 11.2057C12.4958 11.2057 11.5735 11.2057 10.6513 11.2057C10.2248 11.2057 10.2248 11.2057 10.0915 10.8059C9.45181 8.88137 8.80676 6.95157 8.16704 5.02709C8.14039 4.94179 8.1084 4.86183 8.06042 4.71789C8.00711 4.84583 7.97513 4.91514 7.94847 4.9951C7.28743 6.97289 6.62639 8.95068 5.97601 10.9285C5.90671 11.1364 5.82675 11.2163 5.59219 11.2163C4.05687 11.2057 2.52155 11.2057 0.980898 11.2163C0.788983 11.2163 0.703688 11.1524 0.634385 10.9818C0.335851 10.2354 0.122612 9.46778 0.0479787 8.66814C0.0426477 8.5935 0.0159929 8.51354 0 8.4389C0 8.01243 0 7.58595 0 7.15947C0.0159929 7.07418 0.0426477 6.98888 0.0479787 6.90359C0.197246 5.42158 0.687695 4.07284 1.57264 2.86804C3.43314 0.330503 6.82364 -0.671719 9.6917 0.495763C11.2377 1.12482 12.3572 2.25498 13.2475 3.63037C13.3807 3.83828 13.5033 4.05152 13.6473 4.28608C13.6953 4.21145 13.7272 4.15814 13.7592 4.11016C14.1271 3.57706 14.4576 3.01198 14.8787 2.52686C16.7499 0.362489 19.0955 -0.479804 21.8783 0.266532C24.6451 1.00754 26.2817 2.93202 27.0173 5.65081C27.1506 6.14126 27.2039 6.65836 27.2892 7.1648C27.2946 7.58595 27.2946 8.01243 27.2946 8.4389Z" fill="black"/>
<path d="M13.6368 23.9999C13.0291 23.4774 12.4213 22.9603 11.8189 22.4432C9.52663 20.4654 7.21832 18.4983 4.94733 16.4992C3.8225 15.5076 2.79362 14.4095 1.89802 13.194C1.81805 13.0874 1.74342 12.9754 1.64746 12.8315C3.45466 12.8315 5.2352 12.8315 7.02108 12.8315C7.36226 11.8186 7.69278 10.8324 8.04462 9.77686C8.09793 9.91546 8.13525 9.99009 8.1619 10.0701C8.44444 10.9124 8.73232 11.7493 8.99887 12.5969C9.05751 12.7729 9.13214 12.8208 9.31339 12.8208C10.2037 12.8102 11.0886 12.8208 11.9789 12.8102C12.1974 12.8048 12.2987 12.8635 12.3734 13.0874C13.0184 15.0598 13.6795 17.027 14.3352 18.9994C14.3618 19.0847 14.3938 19.1647 14.4791 19.2606C15.524 16.126 16.5688 12.9861 17.6404 9.78219C17.6937 9.92079 17.731 9.99543 17.7576 10.0701C18.0349 10.9017 18.3227 11.7333 18.5893 12.5703C18.6532 12.7622 18.7332 12.8262 18.9358 12.8262C21.0682 12.8155 23.2006 12.8208 25.3329 12.8208C25.4289 12.8208 25.5249 12.8208 25.6741 12.8208C25.5089 13.0501 25.3756 13.2473 25.2317 13.4339C24.1228 14.8893 22.8167 16.1634 21.4413 17.3575C18.8931 19.5698 16.313 21.7502 13.7488 23.9412C13.7168 23.9519 13.6848 23.9679 13.6368 23.9999Z" fill="black"/>
</svg>
