<svg width="450" height="240" viewBox="0 0 450 240" fill="none" xmlns="http://www.w3.org/2000/svg">
<mask id="mask0_776_3" style="mask-type:alpha" maskUnits="userSpaceOnUse" x="0" y="0" width="450" height="240">
<path d="M0 225C0 233.284 6.71573 240 15 240H435C443.284 240 450 233.264 450 224.98C450 145.296 450 94.7036 450 15.0204C450 6.73611 443.284 0 435 0H15C6.71574 0 0 6.71573 0 15V225Z" fill="#0D0009"/>
</mask>
<g mask="url(#mask0_776_3)">
<path d="M477 -15H-27V254.345H477V-15Z" fill="#101010"/>
<path d="M477 -15V254.345H189.1C196.1 228.346 254.5 12.0281 261 -15H477Z" fill="#1A1A1A"/>
<g opacity="0.2">
<mask id="mask1_776_3" style="mask-type:luminance" maskUnits="userSpaceOnUse" x="0" y="0" width="450" height="240">
<path d="M450 0H0V240H450V0Z" fill="white"/>
</mask>
<g mask="url(#mask1_776_3)">
<path d="M-39.7002 6.323V9.68981L47.5998 46.9118L-39.7002 6.323Z" fill="black"/>
<path d="M-9.10019 263.791L54.7998 222.641L-14.2002 263.791H-9.10019Z" fill="black"/>
<path d="M-39.7002 -23.6978V-16.9641L110.4 63.1848L-39.7002 -23.6978Z" fill="black"/>
<path d="M-39.7002 108.73V110.04L2.5998 111.536L-39.7002 108.73Z" fill="black"/>
<path d="M485.1 23.9988L392.5 58.9763L485.1 27.2721V23.9988Z" fill="black"/>
<path d="M-39.7002 171.578V175.038L71.8998 151.096L-39.7002 171.578Z" fill="black"/>
<path d="M-3.9002 263.791L86.6998 204.311L-11.2002 263.791H-3.9002Z" fill="black"/>
<path d="M19.0996 -26.7839L137.6 61.2209L27.6996 -26.7839H19.0996Z" fill="black"/>
<path d="M403.6 -26.7839L300.2 57.0124L411.8 -26.7839H403.6Z" fill="black"/>
<path d="M485.1 210.109L437.3 195.146L485.1 211.699V210.109Z" fill="black"/>
<path d="M485.099 73.4724L378.399 93.8604L485.099 76.7457V73.4724Z" fill="black"/>
<path d="M241.9 -26.7839L228.1 59.8181L246.2 -26.7839H241.9Z" fill="black"/>
<path d="M-39.7002 96.7598V100.22L75.5998 109.198L-39.7002 96.7598Z" fill="black"/>
<path d="M146.5 -26.7839L187.1 57.3865L151.1 -26.7839H146.5Z" fill="black"/>
<path d="M266.7 -26.7839L247.5 33.2576L269.9 -26.7839H266.7Z" fill="black"/>
<path d="M152.6 263.791L167.1 230.217L150.8 263.791H152.6Z" fill="black"/>
<path d="M-39.7002 238.82V243.777L83.5998 184.016L-39.7002 238.82Z" fill="black"/>
<path d="M-19.1998 263.791L42.9002 225.447L-24.2998 263.791H-19.1998Z" fill="black"/>
<path d="M-39.7002 208.987V212.447L59.1998 176.534L-39.7002 208.987Z" fill="black"/>
<path d="M485.1 75.1558L429.7 85.5368L485.1 76.8392V75.1558Z" fill="black"/>
<path d="M273.399 -26.7839L242.899 55.9837L277.899 -26.7839H273.399Z" fill="black"/>
<path d="M422.3 -26.7839L303 61.0339L431.7 -26.7839H422.3Z" fill="black"/>
<path d="M485.1 51.2139L403 73.9399L485.1 53.926V51.2139Z" fill="black"/>
<path d="M485.1 119.486L403 121.169L485.1 121.917V119.486Z" fill="black"/>
<path d="M154.5 263.791L183.7 195.146L150.7 263.791H154.5Z" fill="black"/>
<path d="M485.1 249.108L444.6 230.591L485.1 250.698V249.108Z" fill="black"/>
<path d="M149.2 -26.7839L191.8 65.0554L154.3 -26.7839H149.2Z" fill="black"/>
<path d="M459.799 -26.7839L384.899 20.3515L465.899 -26.7839H459.799Z" fill="black"/>
<path d="M485.1 101.623L321.5 115.184L485.1 106.392V101.623Z" fill="black"/>
<path d="M203.8 263.791L207.5 213.569L201.3 263.791H203.8Z" fill="black"/>
<path d="M274.399 -26.7839L248.399 42.8905L278.199 -26.7839H274.399Z" fill="black"/>
<path d="M-5.2998 -26.7839L144.5 72.5372L5.7002 -26.7839H-5.2998Z" fill="black"/>
<path d="M313.199 263.791L263.899 193.088L308.699 263.791H313.199Z" fill="black"/>
<path d="M485.1 25.9626L311.5 89.371L485.1 32.0416V25.9626Z" fill="black"/>
<path d="M-39.7002 48.4082V51.9621L66.8998 80.2059L-39.7002 48.4082Z" fill="black"/>
<path d="M77.2996 263.791L158.6 179.807L70.5996 263.791H77.2996Z" fill="black"/>
<path d="M121.899 -26.7839L167.399 42.984L126.099 -26.7839H121.899Z" fill="black"/>
<path d="M-39.7002 235.08V237.511L22.9998 208.426L-39.7002 235.08Z" fill="black"/>
<path d="M485.1 0.898926L372.1 53.2716L485.1 5.29449V0.898926Z" fill="black"/>
<path d="M-39.7002 236.67V239.943L44.7998 200.009L-39.7002 236.67Z" fill="black"/>
<path d="M-39.7002 157.549V160.355L52.9998 145.672L-39.7002 157.549Z" fill="black"/>
<path d="M375.4 -26.7839L326 20.8191L379.4 -26.7839H375.4Z" fill="black"/>
<path d="M143.2 -26.7839L173.6 32.8835L146.5 -26.7839H143.2Z" fill="black"/>
<path d="M1.99942 263.791L71.8994 216.562L-3.60059 263.791H1.99942Z" fill="black"/>
<path d="M418.599 263.791L331.899 204.311L412.299 263.791H418.599Z" fill="black"/>
<path d="M485.1 55.7966L372.5 84.6951L485.1 59.3505V55.7966Z" fill="black"/>
<path d="M53.2 263.791L150.3 178.405L45.5 263.791H53.2Z" fill="black"/>
<path d="M485.1 48.4082L331 91.8963L485.1 53.4584V48.4082Z" fill="black"/>
<path d="M364 -26.7839L291.5 48.1277L370 -26.7839H364Z" fill="black"/>
<path d="M-39.7002 -26.7839V-24.7264L113.1 61.5015L-31.5002 -26.7839H-39.7002Z" fill="black"/>
<path d="M-39.7002 193.93V196.829L47.1998 170.643L-39.7002 193.93Z" fill="black"/>
<path d="M123.6 -26.7839L171.5 48.2213L128.1 -26.7839H123.6Z" fill="black"/>
<path d="M-39.7002 213.382V216.749L54.6998 180.93L-39.7002 213.382Z" fill="black"/>
<path d="M-39.7002 105.27V110.507L137.1 117.802L-39.7002 105.27Z" fill="black"/>
<path d="M485.099 81.3284L370.899 99.7523L485.099 84.7887V81.3284Z" fill="black"/>
<path d="M485.099 80.4866L404.899 93.8603L485.099 82.9182V80.4866Z" fill="black"/>
<path d="M205.9 263.791L208.6 218.713L203.7 263.791H205.9Z" fill="black"/>
<path d="M221.899 -26.7839L219.899 56.7318L225.999 -26.7839H221.899Z" fill="black"/>
<path d="M37.8998 263.791L89.5998 221.706L33.7998 263.791H37.8998Z" fill="black"/>
<path d="M148.9 263.791L184.9 186.728L144.6 263.791H148.9Z" fill="black"/>
<path d="M-39.7002 69.1704V71.9761L50.2998 88.7167L-39.7002 69.1704Z" fill="black"/>
<path d="M-39.7002 27.5527V30.1714L32.7998 55.329L-39.7002 27.5527Z" fill="black"/>
<path d="M222.5 -26.7839L220.7 44.1998L226 -26.7839H222.5Z" fill="black"/>
<path d="M144.6 263.791L164.9 222.267L142.2 263.791H144.6Z" fill="black"/>
<path d="M485.1 200.944L342.2 160.168L485.1 205.807V200.944Z" fill="black"/>
<path d="M485.099 -2.56152L377.399 48.7824L485.099 1.647V-2.56152Z" fill="black"/>
<path d="M485.1 222.548L410.3 195.613L485.1 225.26V222.548Z" fill="black"/>
<path d="M-39.7002 177.376V182.333L117.5 144.55L-39.7002 177.376Z" fill="black"/>
<path d="M485.1 144.643L335.7 133.14L485.1 149.039V144.643Z" fill="black"/>
<path d="M34.3002 263.791L130.3 187.944L26.7002 263.791H34.3002Z" fill="black"/>
<path d="M264.7 263.791L247.8 216.469L262.2 263.791H264.7Z" fill="black"/>
<path d="M485.1 53.2717L330.6 94.0476L485.1 58.2284V53.2717Z" fill="black"/>
<path d="M-39.7002 128.37V130.895L43.9998 127.248L-39.7002 128.37Z" fill="black"/>
<path d="M485.1 70.199L331.8 100.968L485.1 74.9686V70.199Z" fill="black"/>
<path d="M-39.7002 163.067V167.182L93.9998 142.773L-39.7002 163.067Z" fill="black"/>
<path d="M485.1 148.197L305.3 131.737L485.1 153.528V148.197Z" fill="black"/>
<path d="M17.4 263.791L53.4 237.418L14.5 263.791H17.4Z" fill="black"/>
<path d="M70 -26.7839L147.1 50.0917L75.9 -26.7839H70Z" fill="black"/>
<path d="M-39.7002 165.312V169.052L80.7998 146.046L-39.7002 165.312Z" fill="black"/>
<path d="M193.3 263.791L197.9 231.993L191.7 263.791H193.3Z" fill="black"/>
<path d="M-39.7002 153.247V155.398L31.2998 145.485L-39.7002 153.247Z" fill="black"/>
<path d="M485.1 -4.24512L388.8 42.4227L485.1 -0.410686V-4.24512Z" fill="black"/>
<path d="M381.5 263.791L289.8 186.354L374.8 263.791H381.5Z" fill="black"/>
<path d="M312.299 -26.7839L289.399 10.1575L314.599 -26.7839H312.299Z" fill="black"/>
<path d="M91.7002 -26.7839L127.6 14.8337L94.6002 -26.7839H91.7002Z" fill="black"/>
<path d="M59 -26.7839L90.7 2.2081L61.4 -26.7839H59Z" fill="black"/>
<path d="M-39.7002 -23.417V-19.3955L50.5998 29.1428L-39.7002 -23.417Z" fill="black"/>
<path d="M485.1 229.375L377.5 187.664L485.1 233.396V229.375Z" fill="black"/>
<path d="M365.2 263.791L332.6 233.677L362.8 263.791H365.2Z" fill="black"/>
<path d="M485.1 63.8394L404.7 82.1698L485.1 66.3645V63.8394Z" fill="black"/>
<path d="M-39.7002 115.277V119.953L120.1 120.514L-39.7002 115.277Z" fill="black"/>
<path d="M62.5 -26.7839L120 27.4592L66.9 -26.7839H62.5Z" fill="black"/>
<path d="M-39.7002 219.742V222.08L26.0998 195.613L-39.7002 219.742Z" fill="black"/>
<path d="M315.7 -26.7839L261 57.293L321 -26.7839H315.7Z" fill="black"/>
<path d="M485.1 62.9041L435.1 74.6879L485.1 64.4939V62.9041Z" fill="black"/>
<path d="M395.8 -26.7839L276.5 73.753L405.2 -26.7839H395.8Z" fill="black"/>
<path d="M-39.7002 245.367V249.202L56.0998 200.57L-39.7002 245.367Z" fill="black"/>
<path d="M485.1 176.347L318.2 143.708L485.1 181.584V176.347Z" fill="black"/>
<path d="M485.1 9.87671L418.3 38.8687L485.1 12.4018V9.87671Z" fill="black"/>
<path d="M111 -26.7839L162.2 43.7322L115.5 -26.7839H111Z" fill="black"/>
<path d="M485.099 108.263L444.899 110.881L485.099 109.478V108.263Z" fill="black"/>
<path d="M436.4 263.791L374.7 225.166L431.8 263.791H436.4Z" fill="black"/>
<path d="M485.099 -24.7266L343.899 54.1131L485.099 -18.5541V-24.7266Z" fill="black"/>
<path d="M364.9 263.791L292.5 195.987L359.5 263.791H364.9Z" fill="black"/>
<path d="M-39.7002 88.436V90.4935L29.9998 98.3494L-39.7002 88.436Z" fill="black"/>
<path d="M202.899 -26.7839L210.699 48.1277L206.599 -26.7839H202.899Z" fill="black"/>
<path d="M485.1 48.9692L320 95.0759L485.1 54.3V48.9692Z" fill="black"/>
<path d="M485.1 67.7673L306.8 104.896L485.1 73.2852V67.7673Z" fill="black"/>
<path d="M-39.7002 -26.7839V-22.2948L64.7998 35.3151L-39.3002 -26.7839H-39.7002Z" fill="black"/>
<path d="M352.699 -26.7839L298.399 34.1929L357.199 -26.7839H352.699Z" fill="black"/>
<path d="M-39.7002 174.477V177.096L44.2998 158.204L-39.7002 174.477Z" fill="black"/>
<path d="M51.7 263.791L110.1 212.447L47 263.791H51.7Z" fill="black"/>
<path d="M407.9 263.791L320.6 200.476L401.5 263.791H407.9Z" fill="black"/>
<path d="M216.4 263.791L215.7 219.648L214.2 263.791H216.4Z" fill="black"/>
<path d="M255.9 -26.7839L233.3 62.7173L260.6 -26.7839H255.9Z" fill="black"/>
<path d="M-39.7002 -18.0862V-13.8777L56.9998 36.157L-39.7002 -18.0862Z" fill="black"/>
<path d="M-39.7002 151.657V157.081L139.9 131.924L-39.7002 151.657Z" fill="black"/>
<path d="M256.7 -26.7839L233.6 62.6238L261.3 -26.7839H256.7Z" fill="black"/>
<path d="M485.1 180.275L307.1 142.773L485.1 185.98V180.275Z" fill="black"/>
<path d="M485.1 207.49L353.1 166.715L485.1 212.073V207.49Z" fill="black"/>
<path d="M-39.7002 128.744V132.111L76.1998 126.78L-39.7002 128.744Z" fill="black"/>
<path d="M271.5 -26.7839L255.5 18.9487L274 -26.7839H271.5Z" fill="black"/>
<path d="M485.1 -13.9714L327.3 67.4868L485.1 -7.51837V-13.9714Z" fill="black"/>
<path d="M21.5 -26.7839L124.4 50.3723L29.1 -26.7839H21.5Z" fill="black"/>
<path d="M123.1 -26.7839L160.6 31.2937L126.6 -26.7839H123.1Z" fill="black"/>
<path d="M-25.0004 263.791L52.6996 217.03L-31.4004 263.791H-25.0004Z" fill="black"/>
<path d="M427.5 -26.7839L370.3 14.7401L432 -26.7839H427.5Z" fill="black"/>
<path d="M185.899 -26.7839L198.399 29.4232L188.799 -26.7839H185.899Z" fill="black"/>
<path d="M-39.7002 91.4287V93.7668L41.1998 101.997L-39.7002 91.4287Z" fill="black"/>
<path d="M17.5996 -26.7839L75.1996 15.2078L21.7996 -26.7839H17.5996Z" fill="black"/>
<path d="M280.199 263.791L244.399 186.261L275.999 263.791H280.199Z" fill="black"/>
<path d="M400.8 263.791L332.1 212.26L395.8 263.791H400.8Z" fill="black"/>
<path d="M371.7 -26.7839L317 27.1787L376.1 -26.7839H371.7Z" fill="black"/>
<path d="M485.1 107.795L344.5 116.305L485.1 111.91V107.795Z" fill="black"/>
<path d="M485.1 55.6096L413.5 74.3142L485.1 57.9477V55.6096Z" fill="black"/>
<path d="M485.1 209.548L317.3 156.053L485.1 215.44V209.548Z" fill="black"/>
<path d="M485.1 226.195L414.3 199.728L485.1 228.813V226.195Z" fill="black"/>
<path d="M78.1998 263.791L102.1 238.633L76.2998 263.791H78.1998Z" fill="black"/>
<path d="M-39.7002 234.612V239.568L86.1998 180.743L-39.7002 234.612Z" fill="black"/>
<path d="M485.1 76.0908L311.8 106.86L485.1 81.4216V76.0908Z" fill="black"/>
<path d="M167.7 -26.7839L185 23.2507L170.3 -26.7839H167.7Z" fill="black"/>
<path d="M485.1 155.492L363.5 141.37L485.1 159.139V155.492Z" fill="black"/>
<path d="M-39.7002 220.209V222.734L28.4998 195.052L-39.7002 220.209Z" fill="black"/>
<path d="M190.3 -26.7839L203.5 42.3293L193.8 -26.7839H190.3Z" fill="black"/>
<path d="M-39.7002 -14.3455V-7.61183L119 71.5084L-39.7002 -14.3455Z" fill="black"/>
<path d="M449 -26.7839L342.3 43.0775L457.6 -26.7839H449Z" fill="black"/>
<path d="M376.899 -26.7839L304.899 41.6747L382.699 -26.7839H376.899Z" fill="black"/>
<path d="M-39.7002 231.152V238.353L146 153.247L-39.7002 231.152Z" fill="black"/>
<path d="M302.2 -26.7839L263 43.4516L306.4 -26.7839H302.2Z" fill="black"/>
<path d="M-39.7002 99.1912V101.436L36.9998 106.86L-39.7002 99.1912Z" fill="black"/>
<path d="M485.1 240.972L300 160.261L485.1 248.266V240.972Z" fill="black"/>
<path d="M-39.7002 230.965V236.202L96.6998 174.384L-39.7002 230.965Z" fill="black"/>
<path d="M188.6 263.791L200.9 197.577L185.3 263.791H188.6Z" fill="black"/>
<path d="M485.1 126.78L316.2 124.816L485.1 131.737V126.78Z" fill="black"/>
<path d="M485.099 116.586L384.899 119.579L485.099 119.486V116.586Z" fill="black"/>
<path d="M0.100195 263.791L148.6 165.592L-11.7998 263.791H0.100195Z" fill="black"/>
<path d="M365.4 -26.7839L298.3 41.8617L370.8 -26.7839H365.4Z" fill="black"/>
<path d="M485.099 186.448L297.399 142.399L485.099 191.498V186.448Z" fill="black"/>
<path d="M11.8994 -26.7839L87.9994 27.2722L17.4994 -26.7839H11.8994Z" fill="black"/>
<path d="M485.1 220.49L393.6 188.038L485.1 223.763V220.49Z" fill="black"/>
<path d="M-39.7002 179.06V181.117L25.0998 165.499L-39.7002 179.06Z" fill="black"/>
<path d="M326.7 -26.7839L278.2 40.5524L331.1 -26.7839H326.7Z" fill="black"/>
<path d="M271 263.791L243.7 195.052L267.4 263.791H271Z" fill="black"/>
<path d="M454 -26.7839L339.3 46.7249L463.3 -26.7839H454Z" fill="black"/>
<path d="M-4.10039 263.791L55.8996 224.231L-8.90039 263.791H-4.10039Z" fill="black"/>
<path d="M235.2 -26.7839L232.2 2.2081L236.7 -26.7839H235.2Z" fill="black"/>
<path d="M319.299 -26.7839L266.399 51.6816L324.299 -26.7839H319.299Z" fill="black"/>
<path d="M329.5 263.791L256.2 173.168L323.4 263.791H329.5Z" fill="black"/>
<path d="M336.3 -26.7839L309.2 8.10003L338.6 -26.7839H336.3Z" fill="black"/>
<path d="M213.8 263.791V232.274L212.3 263.791H213.8Z" fill="black"/>
<path d="M128.5 263.791L181.9 176.441L123.1 263.791H128.5Z" fill="black"/>
<path d="M229.199 -26.7839L222.899 59.1634L233.499 -26.7839H229.199Z" fill="black"/>
<path d="M485.1 -12.8494L429.3 16.1427L485.1 -10.5113V-12.8494Z" fill="black"/>
<path d="M76.5996 -26.7839L125.2 23.5313L80.3996 -26.7839H76.5996Z" fill="black"/>
<path d="M-39.7002 67.2063V70.5731L68.2998 91.4287L-39.7002 67.2063Z" fill="black"/>
<path d="M445.799 263.791L354.399 208.706L438.999 263.791H445.799Z" fill="black"/>
<path d="M257.1 -26.7839L246.7 14.6466L259.3 -26.7839H257.1Z" fill="black"/>
<path d="M-39.7002 18.0134V19.9774L12.7998 40.0848L-39.7002 18.0134Z" fill="black"/>
<path d="M225 -26.7839L223.3 18.9487L227.3 -26.7839H225Z" fill="black"/>
<path d="M225.9 -26.7839L222.8 37.1856L229.1 -26.7839H225.9Z" fill="black"/>
<path d="M335.7 -26.7839L274 52.0557L341.2 -26.7839H335.7Z" fill="black"/>
<path d="M345.3 263.791L296.1 211.044L341.4 263.791H345.3Z" fill="black"/>
<path d="M315 263.791L258.6 184.203L310 263.791H315Z" fill="black"/>
<path d="M-39.7002 130.334V132.298L27.2998 128.931L-39.7002 130.334Z" fill="black"/>
<path d="M485.1 118.738L400.6 120.702L485.1 121.169V118.738Z" fill="black"/>
<path d="M418.8 263.791L371 231.245L415.3 263.791H418.8Z" fill="black"/>
<path d="M335.2 -26.7839L307.7 8.94173L337.6 -26.7839H335.2Z" fill="black"/>
<path d="M485.1 25.3081L299.6 93.2056L485.1 31.2V25.3081Z" fill="black"/>
<path d="M485.1 17.2654L317 84.1341L485.1 23.3444V17.2654Z" fill="black"/>
<path d="M362.8 -26.7839L320.3 17.8264L366.3 -26.7839H362.8Z" fill="black"/>
<path d="M485.1 168.024L436 160.261L485.1 169.614V168.024Z" fill="black"/>
<path d="M485.1 165.779L377 149.226L485.1 169.052V165.779Z" fill="black"/>
<path d="M485.099 152.873L382.899 142.211L485.099 155.959V152.873Z" fill="black"/>
<path d="M330.3 263.791L283.3 206.649L326.5 263.791H330.3Z" fill="black"/>
<path d="M460.1 263.791L348 200.009L451.7 263.791H460.1Z" fill="black"/>
<path d="M485.1 113.594L427.1 116.119L485.1 115.277V113.594Z" fill="black"/>
<path d="M485.1 148.852L315.6 132.953L485.1 153.902V148.852Z" fill="black"/>
<path d="M169.1 -26.7839L187.3 27.3657L171.9 -26.7839H169.1Z" fill="black"/>
<path d="M485.1 230.871L355.8 179.807L485.1 235.734V230.871Z" fill="black"/>
<path d="M-39.7002 146.794V148.665L22.1998 141.557L-39.7002 146.794Z" fill="black"/>
<path d="M-39.7002 187.009V190.095L53.8998 164.283L-39.7002 187.009Z" fill="black"/>
<path d="M10.5 -26.7839L50.9 1.55344L13.4 -26.7839H10.5Z" fill="black"/>
<path d="M485.1 0.337646L375.6 51.3075L485.1 4.63969V0.337646Z" fill="black"/>
<path d="M485.1 46.5378L383.5 76.2781L485.1 49.9047V46.5378Z" fill="black"/>
<path d="M485.099 180.275L429.899 169.052L485.099 182.052V180.275Z" fill="black"/>
<path d="M-39.7002 201.411V206.649L113.7 155.118L-39.7002 201.411Z" fill="black"/>
<path d="M485.1 74.501L400.6 90.3998L485.1 77.1196V74.501Z" fill="black"/>
<path d="M212.799 263.791L213.599 204.685L209.899 263.791H212.799Z" fill="black"/>
<path d="M108.2 263.791L155.9 200.102L104 263.791H108.2Z" fill="black"/>
<path d="M485.1 249.015L313.8 169.427L485.1 256.029V249.015Z" fill="black"/>
<path d="M485.1 142.679L357.2 133.981L485.1 146.513V142.679Z" fill="black"/>
<path d="M141.2 -26.7839L188.8 65.2424L146.4 -26.7839H141.2Z" fill="black"/>
<path d="M485.1 182.52L343.2 151.751L485.1 187.009V182.52Z" fill="black"/>
<path d="M-39.7002 134.449V137.068L48.6998 131.083L-39.7002 134.449Z" fill="black"/>
<path d="M448.1 -26.7839L295.6 72.7242L460.4 -26.7839H448.1Z" fill="black"/>
<path d="M226.899 -26.7839L223.899 29.6102L229.699 -26.7839H226.899Z" fill="black"/>
<path d="M117.6 -26.7839L170.6 51.214L122.4 -26.7839H117.6Z" fill="black"/>
<path d="M75.5 263.791L137.1 200.663L70.5 263.791H75.5Z" fill="black"/>
<path d="M-39.7002 234.518V240.41L109.9 170.268L-39.7002 234.518Z" fill="black"/>
<path d="M-39.7002 209.735V216.188L141.6 148.852L-39.7002 209.735Z" fill="black"/>
<path d="M-39.7002 79.9255V81.5154L10.6998 88.9037L-39.7002 79.9255Z" fill="black"/>
<path d="M-39.7002 39.3367V41.0201L9.19981 55.7967L-39.7002 39.3367Z" fill="black"/>
<path d="M-39.7002 18.2939V23.0636L88.1998 71.4148L-39.7002 18.2939Z" fill="black"/>
<path d="M297.8 263.791L266.1 210.296L294.6 263.791H297.8Z" fill="black"/>
<path d="M73.5 -26.7839L171.2 73.5659L81 -26.7839H73.5Z" fill="black"/>
<path d="M-39.7002 42.1423V47.7537L127.5 95.3568L-39.7002 42.1423Z" fill="black"/>
<path d="M-39.7002 169.146V173.635L103 144.082L-39.7002 169.146Z" fill="black"/>
<path d="M50 -26.7839L160.7 70.9473L58.2 -26.7839H50Z" fill="black"/>
<path d="M115.299 263.791L151.399 211.886L111.899 263.791H115.299Z" fill="black"/>
<path d="M77.0996 -26.7839L130.1 28.3945L81.1996 -26.7839H77.0996Z" fill="black"/>
<path d="M399.299 -26.7839L316.399 42.3293L405.899 -26.7839H399.299Z" fill="black"/>
<path d="M56 -26.7839L142.4 51.9622L62.5 -26.7839H56Z" fill="black"/>
<path d="M185.1 263.791L200 192.901L181.5 263.791H185.1Z" fill="black"/>
<path d="M485.1 225.073L421.2 201.505L485.1 227.411V225.073Z" fill="black"/>
<path d="M355.4 -26.7839L290.6 44.2933L360.8 -26.7839H355.4Z" fill="black"/>
<path d="M-39.7002 115.651V119.766L101.1 120.234L-39.7002 115.651Z" fill="black"/>
<path d="M152.3 -26.7839L186.7 50.5593L156.5 -26.7839H152.3Z" fill="black"/>
<path d="M-39.7002 70.012V72.6306L44.1998 87.9683L-39.7002 70.012Z" fill="black"/>
<path d="M438.9 -26.7839L367.5 22.409L444.6 -26.7839H438.9Z" fill="black"/>
<path d="M485.1 41.5811L426.5 59.9115L485.1 43.545V41.5811Z" fill="black"/>
<path d="M-39.7002 148.103V151.938L87.1998 136.319L-39.7002 148.103Z" fill="black"/>
<path d="M-39.7002 8.38086V9.97075L0.299805 26.8048L-39.7002 8.38086Z" fill="black"/>
<path d="M6.69961 263.791L57.3996 228.626L2.59961 263.791H6.69961Z" fill="black"/>
<path d="M-23.2002 -26.7839L64.5998 26.4305L-16.6002 -26.7839H-23.2002Z" fill="black"/>
<path d="M-39.7002 -11.1658V-4.43214L119.7 73.0982L-39.7002 -11.1658Z" fill="black"/>
<path d="M311.2 263.791L275 211.231L307.9 263.791H311.2Z" fill="black"/>
<path d="M316.599 -26.7839L267.899 47.6601L321.299 -26.7839H316.599Z" fill="black"/>
<path d="M-39.7002 40.9265V44.0128L49.9998 70.3862L-39.7002 40.9265Z" fill="black"/>
<path d="M-39.7002 -2.28101V1.17933L44.8998 39.9912L-39.7002 -2.28101Z" fill="black"/>
<path d="M46.5 -26.7839L161.4 72.6307L55 -26.7839H46.5Z" fill="black"/>
<path d="M-21.7 263.791L126.8 174.29L-34 263.791H-21.7Z" fill="black"/>
<path d="M485.1 120.327L293.2 122.291L485.1 125.003V120.327Z" fill="black"/>
</g>
</g>
<path d="M189.1 255L194.2 242.187L259 107.421L226.1 116.773L192.5 242.187L189.1 255Z" fill="#1A1A1A"/>
<path d="M260.9 -13.1296L255.6 0.0570612L193.8 125.377L226.1 116.773L257.4 0.0570612L260.9 -13.1296Z" fill="#1A1A1A"/>
<path d="M202 206.649L205.3 198.513L246.7 112.285L225.7 118.27L204.2 198.513L202 206.649Z" fill="#0F0D0E"/>
</g>
</svg>
