<svg width="19" height="18" viewBox="0 0 19 18" fill="none" xmlns="http://www.w3.org/2000/svg">
<path d="M9.10365 0C9.41895 0.000102856 9.70695 0.179298 9.84651 0.462061L12.2102 5.25261L17.4968 6.01894C17.8091 6.0642 18.0686 6.28281 18.166 6.58296C18.2634 6.88303 18.1825 7.21254 17.9564 7.43263L14.1256 11.1615L15.0287 16.427C15.082 16.738 14.9539 17.0526 14.6986 17.2379C14.4432 17.4231 14.1045 17.4473 13.8254 17.3002L9.10769 14.8143L4.38026 17.3002C4.10109 17.4469 3.76308 17.4225 3.50793 17.2371C3.25283 17.0517 3.12457 16.7378 3.17777 16.427L4.08085 11.1615L0.250842 7.43263C0.024752 7.21256 -0.0569392 6.88306 0.0404465 6.58296C0.137901 6.28286 0.397419 6.06424 0.709667 6.01894L5.99545 5.25261L8.35998 0.462061C8.49957 0.179216 8.78823 0 9.10365 0Z" fill="#FDB60F"/>
</svg>
