<svg width="24" height="24" viewBox="0 0 24 24" fill="none" xmlns="http://www.w3.org/2000/svg">
<g clip-path="url(#clip0_663_4525)">
<path d="M0 12.0069C0.041049 5.32575 5.36374 0.0137168 12.0137 2.60037e-05C18.6363 -0.0136648 24 5.38052 24 11.9932C24 18.6195 18.6089 24 11.9863 24C5.39111 24 0 18.6058 0 12.0069ZM10.5086 13.2254C10.3717 13.0884 10.3033 13.0337 10.2349 12.9652C9.64652 12.3765 9.04447 11.7741 8.4561 11.1854C7.88141 10.6241 7.07412 10.5967 6.54048 11.1307C6.02052 11.6509 6.04789 12.4724 6.59521 13.02C7.55302 13.992 8.52452 14.9641 9.49601 15.9224C9.66021 16.0867 9.87913 16.2236 10.1117 16.2921C10.6454 16.4564 11.0832 16.2647 11.4664 15.8814C13.4367 13.9099 15.3934 11.9521 17.3637 9.98063C17.4458 9.89849 17.5143 9.83003 17.5827 9.7342C18.1026 9.02227 17.8016 8.02284 16.9806 7.73534C16.4196 7.54367 15.9544 7.69426 15.5439 8.10499C13.943 9.70681 12.3284 11.3223 10.7275 12.9242C10.6454 13.0063 10.5907 13.1158 10.5086 13.2254Z" fill="#0D0009"/>
<path d="M10.5085 13.2253C10.5769 13.1157 10.6317 13.0062 10.7138 12.9241C12.3147 11.3222 13.9156 9.70671 15.5302 8.10489C15.9407 7.69416 16.4059 7.54356 16.9669 7.73523C17.8016 8.02274 18.1026 9.03586 17.569 9.73409C17.5005 9.81624 17.4321 9.89838 17.35 9.98053C15.3797 11.952 13.423 13.9098 11.4527 15.8813C11.0695 16.2646 10.6317 16.4563 10.098 16.292C9.87911 16.2235 9.66018 16.0866 9.4823 15.9223C8.51081 14.964 7.53932 13.9919 6.58151 13.0199C6.03419 12.4586 6.00682 11.6508 6.52677 11.1306C7.06041 10.5966 7.86771 10.6103 8.4424 11.1853C9.04445 11.774 9.63282 12.3764 10.2212 12.9651C10.3033 13.0336 10.3717 13.0883 10.5085 13.2253Z" fill="white"/>
</g>
<defs>
<clipPath id="clip0_663_4525">
<rect width="24" height="24" fill="white"/>
</clipPath>
</defs>
</svg>
