<svg width="14" height="14" viewBox="0 0 14 14" fill="none" xmlns="http://www.w3.org/2000/svg">
<path d="M7 13.125C5.37555 13.125 3.81763 12.4797 2.66897 11.331C1.52031 10.1824 0.875 8.62445 0.875 7C0.875 5.37555 1.52031 3.81763 2.66897 2.66897C3.81763 1.52031 5.37555 0.875 7 0.875C8.62445 0.875 10.1824 1.52031 11.331 2.66897C12.4797 3.81763 13.125 5.37555 13.125 7C13.125 8.62445 12.4797 10.1824 11.331 11.331C10.1824 12.4797 8.62445 13.125 7 13.125ZM7 14C8.85652 14 10.637 13.2625 11.9497 11.9497C13.2625 10.637 14 8.85652 14 7C14 5.14348 13.2625 3.36301 11.9497 2.05025C10.637 0.737498 8.85652 0 7 0C5.14348 0 3.36301 0.737498 2.05025 2.05025C0.737498 3.36301 0 5.14348 0 7C0 8.85652 0.737498 10.637 2.05025 11.9497C3.36301 13.2625 5.14348 14 7 14Z" fill="#9590AC"/>
<path d="M5.48712 4.42312C5.55869 4.38628 5.63902 4.36988 5.7193 4.37575C5.79958 4.38161 5.87668 4.40951 5.94212 4.45638L9.00463 6.64388C9.06134 6.68435 9.10757 6.73778 9.13946 6.79972C9.17136 6.86166 9.188 6.93033 9.188 7C9.188 7.06967 9.17136 7.13834 9.13946 7.20028C9.10757 7.26222 9.06134 7.31565 9.00463 7.35612L5.94212 9.54362C5.8767 9.59045 5.79964 9.61832 5.7194 9.62419C5.63917 9.63006 5.55887 9.61369 5.48733 9.57688C5.4158 9.54007 5.35579 9.48425 5.31392 9.41556C5.27205 9.34686 5.24993 9.26795 5.25 9.1875V4.8125C5.24992 4.73207 5.272 4.65318 5.31384 4.58449C5.35567 4.51579 5.41563 4.45996 5.48712 4.42312Z" fill="#9590AC"/>
</svg>
