<svg width="27" height="24" viewBox="0 0 27 24" fill="none" xmlns="http://www.w3.org/2000/svg">
<path d="M21.0453 7.46281C19.2649 5.29752 16.989 4.12397 14.2176 3.85124C14.2176 2.56198 14.2176 1.29752 14.2176 0C18.3159 0.31405 21.608 2.04959 24.1946 5.17355C23.5984 5.89256 23.0189 6.59504 22.4394 7.28926C19.8948 10.3388 17.3501 13.3884 14.7971 16.438C14.3268 17 13.7054 17.1983 12.9999 17.0496C12.2945 16.8926 11.8326 16.4463 11.6562 15.7603C11.4798 15.0413 11.673 14.405 12.2861 13.9421C14.8055 12.0744 17.325 10.2149 19.8444 8.35537C20.2307 8.05785 20.6254 7.77686 21.0453 7.46281Z" fill="black"/>
<path d="M25.0437 6.40503C25.6903 7.44635 26.1858 8.51247 26.4881 9.65296C27.6051 13.843 26.8912 17.7108 24.3046 21.2397C23.8847 21.8183 23.49 21.8513 22.9441 21.3968C22.415 20.9587 21.886 20.5207 21.3569 20.0827C20.8866 19.6943 20.8614 19.3802 21.2141 18.8761C23.1961 16.091 23.6076 13.0992 22.4318 9.89263C22.3898 9.78519 22.3898 9.61164 22.457 9.53726C23.2968 8.5042 24.1618 7.47114 25.0437 6.40503Z" fill="black"/>
<path d="M6.15574 7.19826C5.54267 7.91726 5.00519 8.74371 4.61048 9.66933C4.21577 10.5867 3.98902 11.5454 3.90504 12.5454C2.60333 12.5454 1.31841 12.5454 0.0334971 12.5454C-0.243641 10.5371 1.61235 6.11561 3.40955 4.47925C4.32494 5.38007 5.23194 6.28917 6.15574 7.19826Z" fill="black"/>
<path d="M4.50098 3.3802C6.85245 1.33888 9.58185 0.214912 12.7311 0.00830078C12.7311 1.29756 12.7311 2.56202 12.7311 3.85128C10.6568 4.02483 8.82602 4.7769 7.26396 6.09095C6.34857 5.19838 5.43317 4.29756 4.50098 3.3802Z" fill="black"/>
<path d="M0.0167963 14C1.31011 14 2.58663 14 3.87154 14C3.95552 14.4545 4.01431 14.9174 4.11509 15.3636C4.39222 16.6281 4.92971 17.7769 5.70233 18.8264C6.10544 19.3802 6.06345 19.6942 5.54277 20.124C4.99689 20.5785 4.45941 21.0331 3.91353 21.4793C3.47683 21.8347 3.07372 21.7851 2.72939 21.3388C1.07496 19.1983 0.176361 16.7769 0 14.0992C0 14.0744 0.00839813 14.0579 0.0167963 14Z" fill="black"/>
<path d="M13.4624 22.5786C15.5871 22.5786 17.7118 22.5786 19.845 22.5786C20.2901 22.5786 20.5336 22.7522 20.6092 23.1158C20.7184 23.5869 20.4328 23.9588 19.9457 24.0001C19.887 24.0084 19.8198 24.0001 19.761 24.0001C15.5703 24.0001 11.3796 24.0001 7.18897 24.0001C6.6347 24.0001 6.34076 23.7687 6.32397 23.3224C6.30717 22.8927 6.58431 22.5869 7.02101 22.5786C7.68446 22.5704 8.33952 22.5786 9.00297 22.5786C10.4894 22.5786 11.9759 22.5786 13.4624 22.5786Z" fill="black"/>
<path d="M13.5045 19.7273C14.3443 19.7273 15.1841 19.7273 16.0155 19.7273C16.5278 19.7273 16.8217 19.9918 16.8217 20.4298C16.8217 20.8678 16.5278 21.1488 16.0239 21.1488C14.3191 21.157 12.6059 21.157 10.901 21.1488C10.3468 21.1488 10.036 20.7521 10.1536 20.2562C10.2292 19.9174 10.4727 19.7356 10.8675 19.7356C11.7493 19.7273 12.6311 19.7273 13.5045 19.7273Z" fill="black"/>
</svg>
