<svg width="48" height="80" viewBox="0 0 48 80" fill="none" xmlns="http://www.w3.org/2000/svg">
<path d="M30.1379 24.2256L14.1751 49.803H7.14254L1.33789 24.2256H8.70533L12.2774 40.9016L22.6588 24.2256H30.1379Z" fill="#FFD602"/>
<path d="M26.567 63.775C24.6693 63.2116 23.1065 62.6482 21.9902 61.7468L24.7809 56.3384C26.0088 57.1271 27.46 57.8032 28.9112 58.2539C30.3623 58.7046 31.8135 58.9299 33.2647 58.9299C34.6042 58.9299 35.7205 58.7046 36.5019 58.3665C37.2833 57.9158 37.6181 57.4651 37.6181 56.6764C37.6181 56.113 37.2833 55.5496 36.6135 55.2116C35.9437 54.8736 34.8274 54.5356 33.3763 54.0848C31.7019 53.6341 30.3623 53.1834 29.246 52.7327C28.1298 52.282 27.2367 51.606 26.4554 50.7046C25.674 49.8032 25.2274 48.5637 25.2274 47.0989C25.2274 45.2961 25.674 43.7187 26.6786 42.2539C27.6833 40.9017 29.1344 39.775 30.9205 39.0989C32.7065 38.3102 34.9391 37.9722 37.3949 37.9722C39.1809 37.9722 40.8553 38.1975 42.4181 38.5355C43.9809 38.8736 45.3205 39.437 46.4367 40.113L43.8693 45.5215C42.8647 44.8454 41.7484 44.3947 40.6321 44.0567C39.4042 43.7186 38.1763 43.606 36.9484 43.606C35.4972 43.606 34.3809 43.8313 33.5995 44.282C32.8181 44.7327 32.3716 45.2961 32.3716 46.0848C32.3716 46.7609 32.7065 47.2116 33.3763 47.5496C34.046 47.8877 35.1623 48.2257 36.6135 48.6764C38.2879 49.1271 39.6274 49.4651 40.7437 49.9158C41.86 50.3665 42.753 51.0426 43.5344 51.944C44.3158 52.8454 44.6507 54.0849 44.6507 55.5496C44.6507 57.3525 44.2042 58.9299 43.1995 60.282C42.1949 61.6341 40.7437 62.7609 38.9577 63.437C37.06 64.2257 34.9391 64.5637 32.4833 64.5637C30.474 64.5637 28.4647 64.3384 26.567 63.775Z" fill="#FFD602"/>
<path d="M0 80C3.12558 73.229 6.69768 66.5507 10.3814 59.8261C12.1674 56.487 14.1767 53.1478 16.0744 49.8087L21.9907 39.7913L28.1302 29.8203C30.2512 26.4812 32.2605 23.1884 34.493 19.8493C36.614 16.5101 38.8465 13.2174 41.0791 9.92464L48 0C47.4419 1.71594 46.5488 3.38551 45.7674 5.10145C44.986 6.77101 44.093 8.48696 43.3116 10.1565L40.7442 15.2116C39.8512 16.8812 38.9581 18.5507 38.0651 20.2203C37.1721 21.8899 36.2791 23.5594 35.2744 25.229L32.3721 30.2377L26.4558 40.2551L20.3163 50.2261C18.1954 53.5652 16.0744 56.858 13.8419 60.1971C9.48837 66.829 5.02326 73.4145 0 80Z" fill="#FFD602"/>
</svg>
